<?xml version="1.0" encoding="UTF-8"?>
<svg id="_Слой_2" data-name="Слой 2" xmlns="http://www.w3.org/2000/svg" viewBox="0 0 606.78 519.62">
  <defs>
    <style>
      .cls-1 {
        fill: #ed1c24;
      }

      .cls-1, .cls-2, .cls-3, .cls-4 {
        stroke: #000;
        stroke-miterlimit: 10;
        stroke-width: 10px;
      }

      .cls-2 {
        fill: #c1272d;
      }

      .cls-3 {
        fill: #fcbd55;
      }
    </style>
  </defs>
  <g id="_Слой_1-2" data-name="Слой 1">
    <g>
      <rect class="cls-1" x="6.22" y="203.23" width="595.56" height="311.39"/>
      <path class="cls-1" d="M601.78,132.28v71.8H6.22v-71.8C6.22,69.13,52.2,16.73,112.5,6.73c6.83-1.14,13.85-1.73,21-1.73h341c6.8,0,13.48.53,20,1.57,58.07,9.16,103.09,57.59,107,117.25.19,2.79.28,5.62.28,8.46Z"/>
      <path class="cls-2" d="M303.5,320.11h0c20.7,0,37.51,16.81,37.51,37.51v112.88h-75.02v-112.88c0-20.7,16.81-37.51,37.51-37.51Z"/>
      <path class="cls-2" d="M187.48,320.11h0c20.7,0,37.51,16.81,37.51,37.51v112.88h-75.02v-112.88c0-20.7,16.81-37.51,37.51-37.51Z"/>
      <path class="cls-2" d="M419.52,320.11h0c20.7,0,37.51,16.81,37.51,37.51v112.88h-75.02v-112.88c0-20.7,16.81-37.51,37.51-37.51Z"/>
      <rect class="cls-3" x="5" y="149.31" width="596" height="107"/>
      <path class="cls-3" d="M601.5,123.82v25.99h-107V6.57c58.07,9.16,103.09,57.59,107,117.25Z"/>
      <path class="cls-3" d="M112.5,6.73v143.08H6.22v-17.53C6.22,69.13,52.2,16.73,112.5,6.73Z"/>
      <rect class="cls-3" x="494" y="256.31" width="107" height="258.31"/>
      <rect class="cls-3" x="6.22" y="256.31" width="105.78" height="258.31"/>
      <rect class="cls-3" x="5" y="441.35" width="596" height="72.92"/>
      <rect class="cls-3" x="229" y="129.31" width="150" height="150" rx="30.49" ry="30.49"/>
      <rect class="cls-4" x="289.5" y="177.31" width="30" height="51" rx="4.37" ry="4.37"/>
    </g>
  </g>
</svg>