<?xml version="1.0" encoding="UTF-8"?>
<svg id="_Слой_2" data-name="Слой 2" xmlns="http://www.w3.org/2000/svg" viewBox="0 0 628.84 477.04">
  <defs>
    <style>
      .cls-1 {
        fill: #8c6239;
      }

      .cls-1, .cls-2, .cls-3, .cls-4, .cls-5, .cls-6, .cls-7, .cls-8, .cls-9, .cls-10, .cls-11, .cls-12 {
        stroke-width: 10px;
      }

      .cls-1, .cls-2, .cls-3, .cls-4, .cls-7, .cls-9, .cls-10, .cls-11, .cls-12 {
        stroke: #000;
      }

      .cls-1, .cls-2, .cls-4, .cls-5, .cls-6, .cls-8, .cls-9, .cls-10, .cls-11 {
        stroke-miterlimit: 10;
      }

      .cls-2, .cls-6, .cls-8 {
        fill: #fff;
      }

      .cls-3, .cls-4, .cls-5 {
        fill: #1a1a1a;
      }

      .cls-3, .cls-7, .cls-12 {
        stroke-linejoin: round;
      }

      .cls-5 {
        stroke: #b3b3b3;
      }

      .cls-5, .cls-7, .cls-9 {
        stroke-linecap: round;
      }

      .cls-6 {
        stroke: #d48000;
      }

      .cls-7, .cls-11, .cls-12 {
        fill: none;
      }

      .cls-8 {
        stroke: #ccc;
      }
    </style>
  </defs>
  <g id="_Слой_1-2" data-name="Слой 1">
    <g>
      <path d="M172.17,356.69c1.93,0,1.93-3,0-3s-1.93,3,0,3h0Z"/>
      <path class="cls-4" d="M289.56,297.48c7.77,62.9-49.46,133.24-127.85,157.12-78.38,23.88-148.23-7.76-156-70.65-7.77-62.9,49.46-133.24,127.85-157.12,78.38-23.88,148.23,7.76,156,70.65Z"/>
      <polyline class="cls-7" points="243.15 296.47 147.63 315.98 158.43 472.04"/>
      <polyline class="cls-12" points="248.06 234.83 212.08 177.33 176.54 219.13"/>
      <polyline class="cls-12" points="290.26 206.57 285.23 186.39 250.4 241.43"/>
      <polyline class="cls-12" points="348.22 205.44 324.25 177.33 318.96 206.57"/>
      <line class="cls-5" x1="98.13" y1="241.43" x2="30.29" y2="433.72"/>
      <line class="cls-5" x1="133.55" y1="226.83" x2="60.99" y2="453.42"/>
      <line class="cls-5" x1="165.2" y1="220.08" x2="89.86" y2="461.12"/>
      <path class="cls-11" d="M289.56,297.48c7.77,62.9-49.46,133.24-127.85,157.12-78.38,23.88-148.23-7.76-156-70.65-7.77-62.9,49.46-133.24,127.85-157.12,78.38-23.88,148.23,7.76,156,70.65Z"/>
      <ellipse class="cls-4" cx="300.56" cy="275.57" rx="57.41" ry="70.12"/>
      <ellipse class="cls-4" cx="373.02" cy="247.7" rx="67.58" ry="48.77" transform="translate(-66.39 161.58) rotate(-22.5)"/>
      <ellipse class="cls-1" cx="501.56" cy="199.97" rx="109.04" ry="79.77"/>
      <circle class="cls-2" cx="514.8" cy="177.68" r="35.88"/>
      <circle class="cls-10" cx="518.63" cy="173.15" r="13.24"/>
      <path class="cls-7" d="M436.82,166.42s10.78-126.68,163-161.42"/>
      <path class="cls-7" d="M478.92,120.2s39.02-45.98,144.92-52.25"/>
      <polyline class="cls-7" points="310.58 273.56 243.15 329.09 276.87 462.56"/>
      <polyline class="cls-7" points="362.84 247.7 337.49 315.98 414.82 433.72"/>
      <path class="cls-3" d="M394.11,190.39l150.42-78.69-39,6,26-20-63.19,12c-20.53,3.34-39.57,12.8-54.63,27.15l-17.71,16.87c-6.53,6.23-8.89,15.67-6.03,24.23l4.14,12.45Z"/>
      <line class="cls-6" x1="551.38" y1="292.67" x2="531.87" y2="256.06"/>
      <line class="cls-8" x1="560.38" y1="310.67" x2="540.87" y2="274.06"/>
      <line class="cls-9" x1="574.09" y1="259.53" x2="505.4" y2="252.59"/>
    </g>
  </g>
</svg>