<?xml version="1.0" encoding="UTF-8"?>
<svg id="_Слой_2" data-name="Слой 2" xmlns="http://www.w3.org/2000/svg" viewBox="0 0 628.84 477.04">
  <defs>
    <style>
      .cls-1 {
        fill: #fff;
      }

      .cls-1, .cls-2, .cls-3, .cls-4, .cls-5, .cls-6, .cls-7, .cls-8, .cls-9, .cls-10, .cls-11 {
        stroke-miterlimit: 10;
      }

      .cls-1, .cls-2, .cls-3, .cls-4, .cls-5, .cls-7, .cls-12, .cls-8, .cls-9, .cls-10, .cls-11, .cls-13 {
        stroke: #000;
        stroke-width: 10px;
      }

      .cls-2 {
        fill: #1a1a1a;
      }

      .cls-2, .cls-3, .cls-4, .cls-5, .cls-6, .cls-12, .cls-10 {
        stroke-linecap: round;
      }

      .cls-3, .cls-6 {
        fill: #a36114;
      }

      .cls-4 {
        fill: #2e2e2e;
      }

      .cls-5 {
        fill: #16471d;
      }

      .cls-6 {
        stroke: #a3a300;
        stroke-width: 20px;
      }

      .cls-7 {
        fill: #5c4f45;
      }

      .cls-12, .cls-13 {
        fill: none;
        stroke-linejoin: round;
      }

      .cls-8 {
        fill: #4f443c;
      }

      .cls-9 {
        fill: #736357;
      }
    </style>
  </defs>
  <g id="_Слой_1-2" data-name="Слой 1">
    <g>
      <path class="cls-5" d="M428.53,406.33l-104.36,55.05c-8.66,4.57-19.39,1.25-23.96-7.41l-21.42-40.6c-4.57-8.66-1.25-19.39,7.41-23.96l104.36-55.05c10.83-5.71,23.07-8.19,35.27-7.13l10.45.9c5.55.48,11.13-.33,16.32-2.38l75.01-29.56c1.39-.55,2.96.04,3.66,1.36l7.09,13.45c.7,1.32.29,2.95-.95,3.78l-66.76,45.22c-4.61,3.12-8.44,7.27-11.17,12.12l-5.15,9.13c-6.02,10.66-14.98,19.37-25.81,25.08Z"/>
      <rect class="cls-3" x="323.18" y="360.38" width="81" height="68" transform="translate(542.84 -111.29) rotate(62.19)"/>
      <line class="cls-6" x1="531.27" y1="297.54" x2="538.37" y2="310.98"/>
      <path d="M172.17,356.69c1.93,0,1.93-3,0-3s-1.93,3,0,3h0Z"/>
      <path class="cls-9" d="M289.56,297.48c7.77,62.9-49.46,133.24-127.85,157.12-78.38,23.88-148.23-7.76-156-70.65-7.77-62.9,49.46-133.24,127.85-157.12,78.38-23.88,148.23,7.76,156,70.65Z"/>
      <ellipse class="cls-8" cx="300.56" cy="275.57" rx="57.41" ry="70.12"/>
      <ellipse class="cls-7" cx="373.02" cy="247.7" rx="67.58" ry="48.77" transform="translate(-66.39 161.58) rotate(-22.5)"/>
      <ellipse class="cls-9" cx="501.56" cy="199.97" rx="109.04" ry="79.77"/>
      <polyline class="cls-12" points="243.15 296.47 147.63 315.98 158.43 472.04"/>
      <polyline class="cls-12" points="310.58 273.56 243.15 329.09 276.87 462.56"/>
      <polyline class="cls-12" points="362.84 247.7 337.49 315.98 414.82 433.72"/>
      <polyline class="cls-13" points="248.06 234.83 212.08 177.33 176.54 219.13"/>
      <polyline class="cls-13" points="290.26 206.57 285.23 186.39 250.4 241.43"/>
      <polyline class="cls-13" points="348.22 205.44 324.25 177.33 318.96 206.57"/>
      <circle class="cls-1" cx="514.8" cy="177.68" r="35.88"/>
      <circle class="cls-11" cx="518.63" cy="173.15" r="13.24"/>
      <path class="cls-12" d="M436.82,166.42s10.78-126.68,163-161.42"/>
      <path class="cls-12" d="M478.92,120.2s39.02-45.98,144.92-52.25"/>
      <line class="cls-10" x1="583.96" y1="252.22" x2="505.4" y2="262.75"/>
      <polygon class="cls-4" points="509.25 75.23 473.53 92.7 412.53 121.7 381.53 147.7 373.53 111.7 370.53 82.7 400.53 60.7 436.82 45.92 471.53 54.7 509.25 75.23"/>
      <polygon class="cls-2" points="518.33 75.23 514.8 120.79 393.08 191.96 370.53 157.7 381.53 147.7 412.53 121.7 473.53 92.7 509.25 75.23 518.33 75.23"/>
    </g>
  </g>
</svg>