<?xml version="1.0" encoding="UTF-8"?>
<svg id="_Слой_2" data-name="Слой 2" xmlns="http://www.w3.org/2000/svg" viewBox="0 0 752.85 497.24">
  <defs>
    <style>
      .cls-1 {
        fill: #4b7800;
      }

      .cls-1, .cls-2, .cls-3, .cls-4, .cls-5, .cls-6, .cls-7, .cls-8, .cls-9, .cls-10, .cls-11, .cls-12, .cls-13 {
        stroke: #000;
      }

      .cls-1, .cls-2, .cls-3, .cls-4, .cls-5, .cls-6, .cls-7, .cls-9, .cls-10, .cls-11, .cls-12 {
        stroke-miterlimit: 10;
      }

      .cls-1, .cls-2, .cls-4, .cls-7, .cls-8, .cls-9, .cls-11, .cls-12, .cls-13 {
        stroke-width: 10px;
      }

      .cls-2 {
        fill: #8c6239;
      }

      .cls-3 {
        fill: #5e6921;
      }

      .cls-3, .cls-5, .cls-6, .cls-10 {
        stroke-width: 8px;
      }

      .cls-4 {
        fill: #fff;
      }

      .cls-5 {
        fill: gray;
      }

      .cls-6 {
        fill: #718500;
      }

      .cls-7 {
        fill: #6e7d00;
      }

      .cls-8, .cls-9 {
        stroke-linecap: round;
      }

      .cls-8, .cls-13 {
        fill: none;
        stroke-linejoin: round;
      }

      .cls-10 {
        fill: #754c24;
      }

      .cls-12 {
        fill: #314f00;
      }
    </style>
  </defs>
  <g id="_Слой_1-2" data-name="Слой 1">
    <g>
      <g>
        <polygon class="cls-10" points="351.15 389.87 366.01 423.71 261.82 491.32 233.72 427.35 351.15 389.87"/>
        <polygon class="cls-5" points="740.77 218.77 747.58 234.29 452.3 363.96 464.21 380.59 366.01 423.71 351.15 389.87 740.77 218.77"/>
        <polygon class="cls-10" points="563.52 315.11 537.12 348.57 464.21 380.59 452.3 363.96 563.52 315.11"/>
      </g>
      <path d="M172.17,356.69c1.93,0,1.93-3,0-3s-1.93,3,0,3h0Z"/>
      <path class="cls-12" d="M289.56,297.48c7.77,62.9-49.46,133.24-127.85,157.12-78.38,23.88-148.23-7.76-156-70.65-7.77-62.9,49.46-133.24,127.85-157.12,78.38-23.88,148.23,7.76,156,70.65Z"/>
      <ellipse class="cls-1" cx="300.56" cy="275.57" rx="57.41" ry="70.12"/>
      <ellipse class="cls-7" cx="373.02" cy="247.7" rx="67.58" ry="48.77" transform="translate(-66.39 161.58) rotate(-22.5)"/>
      <ellipse class="cls-2" cx="501.56" cy="199.97" rx="109.04" ry="79.77"/>
      <polyline class="cls-8" points="243.15 296.47 147.63 315.98 158.43 472.04"/>
      <polyline class="cls-8" points="310.58 273.56 243.15 329.09 276.87 462.56"/>
      <polyline class="cls-8" points="362.84 247.7 337.49 315.98 414.82 433.72"/>
      <polyline class="cls-13" points="248.06 234.83 212.08 177.33 176.54 219.13"/>
      <polyline class="cls-13" points="290.26 206.57 285.23 186.39 250.4 241.43"/>
      <polyline class="cls-13" points="348.22 205.44 324.25 177.33 318.96 206.57"/>
      <circle class="cls-4" cx="514.8" cy="177.68" r="35.88"/>
      <circle class="cls-11" cx="518.63" cy="173.15" r="13.24"/>
      <line class="cls-9" x1="574.09" y1="259.53" x2="505.4" y2="252.59"/>
      <path class="cls-8" d="M436.82,166.42s10.78-126.68,163-161.42"/>
      <path class="cls-8" d="M478.92,120.2s39.02-45.98,144.92-52.25"/>
      <polygon class="cls-3" points="550.68 94.08 373.02 213.91 376.16 159.92 475.53 78.26 550.68 94.08"/>
      <polygon class="cls-6" points="475.53 78.26 376.16 159.92 351.15 120.21 445.53 44.7 475.53 78.26"/>
    </g>
  </g>
</svg>