<?xml version="1.0" encoding="UTF-8"?>
<svg id="_Слой_2" data-name="Слой 2" xmlns="http://www.w3.org/2000/svg" viewBox="0 0 628.84 477.05">
  <defs>
    <style>
      .cls-1 {
        fill: #8c6239;
      }

      .cls-1, .cls-2, .cls-3, .cls-4, .cls-5, .cls-6, .cls-7, .cls-8 {
        stroke: #000;
      }

      .cls-1, .cls-2, .cls-3, .cls-4, .cls-5, .cls-6, .cls-8 {
        stroke-miterlimit: 10;
      }

      .cls-1, .cls-2, .cls-4, .cls-5, .cls-6, .cls-7, .cls-8 {
        stroke-width: 10px;
      }

      .cls-2 {
        fill: #fff;
      }

      .cls-3 {
        stroke-width: 5px;
      }

      .cls-3, .cls-6, .cls-7 {
        fill: none;
        stroke-linecap: round;
      }

      .cls-4 {
        fill: #593e24;
      }

      .cls-5 {
        fill: #73502f;
      }

      .cls-7 {
        stroke-linejoin: round;
      }
    </style>
  </defs>
  <g id="_Слой_1-2" data-name="Слой 1">
    <g>
      <path d="M172.17,356.69c1.93,0,1.93-3,0-3s-1.93,3,0,3h0Z"/>
      <path class="cls-1" d="M289.56,297.48c7.77,62.9-49.46,133.24-127.85,157.12-78.38,23.88-148.23-7.76-156-70.65-7.77-62.9,49.46-133.24,127.85-157.12,78.38-23.88,148.23,7.76,156,70.65Z"/>
      <ellipse class="cls-4" cx="300.56" cy="275.57" rx="57.41" ry="70.12"/>
      <ellipse class="cls-5" cx="373.02" cy="247.7" rx="67.58" ry="48.77" transform="translate(-66.39 161.58) rotate(-22.5)"/>
      <ellipse class="cls-1" cx="501.56" cy="199.97" rx="109.04" ry="79.77"/>
      <circle class="cls-2" cx="514.8" cy="177.68" r="35.88"/>
      <circle class="cls-8" cx="518.63" cy="173.15" r="13.24"/>
      <path class="cls-7" d="M436.82,166.42s10.78-126.68,163-161.42"/>
      <path class="cls-7" d="M478.92,120.2s39.02-45.98,144.92-52.25"/>
      <path class="cls-6" d="M573.85,259.7s-71.53,13.33-94.92-19.83"/>
      <path class="cls-1" d="M337.49,315.98s-32.34-47.27,25.35-68.28c0,0,31.61,64.57-25.35,68.28Z"/>
      <line class="cls-7" x1="414.82" y1="433.73" x2="337.49" y2="315.98"/>
      <path class="cls-1" d="M243.16,329.1s-7.53-77.67,67.42-55.54c0,0,1.2,74.93-67.42,55.54Z"/>
      <line class="cls-7" x1="276.87" y1="462.56" x2="243.16" y2="329.1"/>
      <path class="cls-1" d="M243.16,296.48s-18.42,68.79-95.53,19.5c0,0,40.15-77.73,95.53-19.5Z"/>
      <line class="cls-7" x1="158.43" y1="472.05" x2="147.63" y2="315.98"/>
      <line class="cls-1" x1="212.08" y1="177.34" x2="176.55" y2="219.14"/>
      <path class="cls-1" d="M248.06,234.84s-60.43-18.87-35.98-57.5c0,0,65.52-5.36,35.98,57.5Z"/>
      <path class="cls-1" d="M290.26,206.58c-7.67-1.33-12.24-3.04-14.7-4.9l9.67-15.29s30.77,8.06,5.03,20.19Z"/>
      <line class="cls-1" x1="275.56" y1="201.68" x2="250.4" y2="241.43"/>
      <path class="cls-1" d="M275.56,201.68c-8.84-6.68,9.67-15.29,9.67-15.29"/>
      <path class="cls-1" d="M348.22,205.45c-17.83,1.91-25.19-2.27-27.62-7.94l3.65-20.17c50.72-4.37,23.97,28.11,23.97,28.11Z"/>
      <path class="cls-1" d="M324.25,177.34s-7.27,11.74-3.65,20.17l-1.64,9.07"/>
      <path class="cls-3" d="M126.03,434.2s91.64-19.51,110.57-79"/>
      <path class="cls-3" d="M194.31,355.19s3.12,44.17,36.67,51.33"/>
      <path class="cls-3" d="M162.85,384.26s4.75,45.95,31.47,43.45"/>
      <path class="cls-3" d="M418.91,269.59s-21.94-34.39-51.41-9.89"/>
      <path class="cls-3" d="M32.78,315.98s113.35-101.78,179.3-68.28"/>
      <path class="cls-3" d="M42.41,329.1s84.07-67.17,159.84-73.03"/>
      <path class="cls-3" d="M262.98,240.93s5.12-19.39,37.58-13.06"/>
      <path class="cls-3" d="M341.64,226.6s6.63-12.06,34.51-7.73"/>
      <path class="cls-3" d="M176.55,311.92s17.16,4.78,41.82-10.97"/>
      <path class="cls-3" d="M260.01,306.77s25.89-1.3,33.95-24.94"/>
      <path class="cls-3" d="M341.64,294.3s11.26-2.32,16.32-24.72"/>
      <path class="cls-3" d="M218.37,186.39s19.8,14.23,18.23,27.52"/>
    </g>
  </g>
</svg>