<?xml version="1.0" encoding="UTF-8"?>
<svg id="_Слой_2" data-name="Слой 2" xmlns="http://www.w3.org/2000/svg" viewBox="0 0 639.58 477.04">
  <defs>
    <style>
      .cls-1 {
        fill: #8c6239;
      }

      .cls-1, .cls-2, .cls-3, .cls-4, .cls-5, .cls-6, .cls-7, .cls-8, .cls-9, .cls-10, .cls-11, .cls-12, .cls-13, .cls-14, .cls-15 {
        stroke: #000;
      }

      .cls-1, .cls-2, .cls-4, .cls-5, .cls-6, .cls-9, .cls-11, .cls-13, .cls-14 {
        stroke-miterlimit: 10;
      }

      .cls-1, .cls-2, .cls-8, .cls-13, .cls-15 {
        stroke-width: 10px;
      }

      .cls-2 {
        fill: #fff;
      }

      .cls-3 {
        fill: #333;
      }

      .cls-3, .cls-4, .cls-5, .cls-6, .cls-7, .cls-9, .cls-10, .cls-11, .cls-12, .cls-14 {
        stroke-width: 8px;
      }

      .cls-3, .cls-7, .cls-8, .cls-10, .cls-12 {
        stroke-linecap: round;
      }

      .cls-3, .cls-7, .cls-8, .cls-10, .cls-12, .cls-15 {
        stroke-linejoin: round;
      }

      .cls-4, .cls-8, .cls-10, .cls-15 {
        fill: none;
      }

      .cls-5 {
        fill: #323b00;
      }

      .cls-6 {
        fill: #5f7000;
      }

      .cls-7 {
        fill: #1a1a1a;
      }

      .cls-9 {
        fill: #526100;
      }

      .cls-11 {
        fill: #3d4700;
      }

      .cls-12 {
        fill: #4d4d4d;
      }

      .cls-14 {
        fill: #687a00;
      }
    </style>
  </defs>
  <g id="_Слой_1-2" data-name="Слой 1">
    <g>
      <g>
        <polygon class="cls-12" points="374.14 388.97 291.3 449.51 271.54 383.01 363.92 355.32 374.14 388.97"/>
        <polygon class="cls-7" points="440 331.52 451.63 370.66 394.7 393.96 374.14 388.97 363.92 355.32 440 331.52"/>
        <polygon class="cls-3" points="451.63 370.66 434.57 392.04 408.98 411 394.7 393.96 451.63 370.66"/>
        <polygon class="cls-12" points="408.98 411 399.18 441.65 388.05 444.96 394.7 393.96 408.98 411"/>
        <polygon class="cls-12" points="490.56 430.04 465.13 444 434.57 392.04 451.63 370.66 490.56 430.04"/>
        <polygon class="cls-3" points="587.52 321.77 451.63 370.66 440 331.52 573.73 289.68 576.83 296.56 583.58 310.91 587.52 321.77"/>
        <polygon class="cls-7" points="631.27 280.38 635.58 295.46 583.58 310.91 576.83 296.56 631.27 280.38"/>
      </g>
      <path d="M171.17,356.69c1.93,0,1.93-3,0-3s-1.93,3,0,3h0Z"/>
      <path class="cls-11" d="M288.56,297.48c7.77,62.9-49.46,133.24-127.85,157.12-78.38,23.88-148.23-7.76-156-70.65-7.77-62.9,49.46-133.24,127.85-157.12,78.38-23.88,148.23,7.76,156,70.65Z"/>
      <path class="cls-5" d="M356.97,275.57c0,38.73-25.7,70.13-57.41,70.13-24.77,0-45.88-19.17-53.93-46.03,0,0,75.27,1.76,109.09-43.6,1.47,6.19,2.25,12.73,2.25,19.5Z"/>
      <path class="cls-5" d="M347.22,236.47c-41-3.21-103.72,30.23-104.65,30.72,3.39-34.78,27.61-61.74,56.99-61.74,19.85,0,37.35,12.31,47.66,31.02Z"/>
      <path class="cls-9" d="M354.72,256.07c-33.82,45.36-109.09,43.6-109.09,43.6-2.24-7.52-3.47-15.63-3.47-24.1,0-2.84.14-5.64.41-8.38.93-.49,63.65-33.93,104.65-30.72,3.28,5.95,5.83,12.54,7.5,19.6Z"/>
      <path class="cls-5" d="M421.07,205.45l-111.49,39.14c6.09-16.87,21.95-32.9,43.78-41.94,25.22-10.45,51.43-8.66,67.71,2.8Z"/>
      <path class="cls-5" d="M390.68,292.76c-30.18,12.51-61.77,7.48-76.09-10.66l121.23-56.32c6.87,24.2-12.44,53.44-45.14,66.98Z"/>
      <path class="cls-6" d="M435.82,225.78l-121.23,56.32c-2.04-2.59-3.73-5.44-5.01-8.54-3.78-9.13-3.53-19.19,0-28.97l111.49-39.14c5.98,4.21,10.62,9.72,13.39,16.4.54,1.29.99,2.6,1.36,3.93Z"/>
      <path class="cls-5" d="M601.31,230.53c-16.38,28.9-55.31,49.22-100.74,49.22-48.76,0-90.05-23.41-103.99-55.72l204.73,6.5Z"/>
      <path class="cls-1" d="M609.6,199.98c0,10.82-2.95,21.14-8.29,30.55l-204.73-6.5c-3.28-7.59-5.05-15.67-5.05-24.05,0-44.06,48.82-79.77,109.04-79.77s109.03,35.71,109.03,79.77Z"/>
      <polyline class="cls-8" points="242.15 296.47 146.63 315.98 157.43 472.04"/>
      <polyline class="cls-8" points="309.58 273.56 242.15 329.09 275.87 462.56"/>
      <polyline class="cls-8" points="361.84 247.7 336.49 315.98 413.82 433.72"/>
      <polyline class="cls-15" points="247.06 234.83 211.08 177.33 175.54 219.13"/>
      <polyline class="cls-15" points="289.26 206.57 284.23 186.39 249.4 241.43"/>
      <polyline class="cls-15" points="347.22 205.44 323.25 177.33 317.96 206.57"/>
      <circle class="cls-2" cx="513.8" cy="177.68" r="35.88"/>
      <circle class="cls-13" cx="517.63" cy="173.15" r="13.24"/>
      <path class="cls-8" d="M435.82,166.42s10.78-126.68,163-161.42"/>
      <path class="cls-8" d="M477.92,120.2s39.02-45.98,144.92-52.25"/>
      <path class="cls-14" d="M394.85,187.97l37.79,2.62c12.04.83,23.46-5.42,29.25-16l14.51-26.54c6.71-12.27,20.25-19.19,34.13-17.44l58.66,7.39s-1.67-94.29-119.67-88.29c-85.31,4.34-87.78,73.86-82.6,112.04,1.94,14.27,13.56,25.24,27.92,26.24Z"/>
      <polygon class="cls-5" points="388.89 263.57 404.53 254.7 408.86 261.56 397.15 270.1 388.89 263.57"/>
      <polygon class="cls-5" points="360.89 280.57 376.53 271.7 380.86 278.56 369.15 287.1 360.89 280.57"/>
      <path class="cls-4" d="M242.57,267.19h-.01"/>
      <line class="cls-5" x1="289.26" y1="307.83" x2="316.28" y2="299.67"/>
      <line class="cls-5" x1="292.53" y1="319.7" x2="319.53" y2="310.7"/>
      <line class="cls-5" x1="298.44" y1="332.81" x2="323.53" y2="322.7"/>
      <path class="cls-10" d="M165.53,240.7s-21.32,22.11-22.66,51.05c0,0-7.62-27.77-22.98-44.91,0,0-20.66,29.66-15.51,52.26"/>
    </g>
  </g>
</svg>