<?xml version="1.0" encoding="UTF-8"?>
<svg id="_Слой_2" data-name="Слой 2" xmlns="http://www.w3.org/2000/svg" viewBox="0 0 794.07 477.04">
  <defs>
    <style>
      .cls-1 {
        stroke-width: 6px;
      }

      .cls-1, .cls-2, .cls-3, .cls-4, .cls-5, .cls-6, .cls-7, .cls-8, .cls-9, .cls-10, .cls-11, .cls-12 {
        stroke: #000;
      }

      .cls-1, .cls-6, .cls-8, .cls-10 {
        stroke-linecap: round;
      }

      .cls-1, .cls-6, .cls-10, .cls-12 {
        stroke-linejoin: round;
      }

      .cls-1, .cls-10 {
        fill: #009245;
      }

      .cls-2 {
        fill: #8c6239;
      }

      .cls-2, .cls-3, .cls-4, .cls-5, .cls-6, .cls-7, .cls-8, .cls-9, .cls-11, .cls-12 {
        stroke-width: 10px;
      }

      .cls-2, .cls-3, .cls-4, .cls-5, .cls-7, .cls-8, .cls-9, .cls-11 {
        stroke-miterlimit: 10;
      }

      .cls-3 {
        fill: #fff;
      }

      .cls-4 {
        fill: #333;
      }

      .cls-5 {
        fill: #1a1a1a;
      }

      .cls-6, .cls-12 {
        fill: none;
      }

      .cls-7 {
        fill: #4d4d4d;
      }

      .cls-9 {
        fill: #666;
      }

      .cls-10 {
        stroke-width: 4px;
      }
    </style>
  </defs>
  <g id="_Слой_1-2" data-name="Слой 1">
    <g>
      <path d="M337.4,356.69c1.93,0,1.93-3,0-3s-1.93,3,0,3h0Z"/>
      <path class="cls-5" d="M454.78,297.48c7.77,62.9-49.46,133.24-127.85,157.12-78.38,23.88-148.23-7.76-156-70.65-7.77-62.9,49.46-133.24,127.85-157.12,78.38-23.88,148.23,7.76,156,70.65Z"/>
      <ellipse class="cls-4" cx="465.79" cy="275.57" rx="57.41" ry="70.12"/>
      <ellipse class="cls-7" cx="538.25" cy="247.7" rx="67.58" ry="48.77" transform="translate(-53.82 224.8) rotate(-22.5)"/>
      <path class="cls-5" d="M775.83,199.98l-78.34,20.34c-13.63,3.54-27.9,3.83-41.66.86l-98.07-21.2c0-44.06,48.82-79.77,109.04-79.77s109.03,35.71,109.03,79.77Z"/>
      <path class="cls-2" d="M775.83,199.98c0,44.06-48.81,79.77-109.03,79.77s-109.04-35.71-109.04-79.77l98.07,21.2c13.76,2.97,28.03,2.68,41.66-.86l78.34-20.34Z"/>
      <polyline class="cls-6" points="408.38 296.47 312.86 315.98 323.66 472.04"/>
      <polyline class="cls-6" points="528.07 247.7 502.72 315.98 580.05 433.72"/>
      <polyline class="cls-12" points="413.29 234.83 377.31 177.33 341.77 219.13"/>
      <polyline class="cls-12" points="455.49 206.57 450.46 186.39 415.63 241.43"/>
      <polyline class="cls-12" points="513.45 205.44 489.48 177.33 484.19 206.57"/>
      <circle class="cls-3" cx="680.03" cy="177.68" r="35.88"/>
      <circle class="cls-11" cx="683.86" cy="173.15" r="13.24"/>
      <line class="cls-8" x1="739.32" y1="259.53" x2="670.63" y2="252.59"/>
      <path class="cls-6" d="M602.05,166.42s10.78-126.68,163-161.42"/>
      <path class="cls-6" d="M644.15,120.2s39.02-45.98,144.92-52.25"/>
      <path class="cls-9" d="M541.4,296.58c12.68-3.02,18.48-17.78,11.2-28.59-36.69-54.41-151.89-186.52-396.69-167.79-307.15,23.49-63.1,302.06,14.85,209.49,0,0,141.3-159.07,355.9-15.77,4.33,2.89,9.67,3.87,14.74,2.66h0Z"/>
      <polyline class="cls-6" points="445.76 259.7 408.38 329.09 522.76 267.7"/>
      <rect class="cls-1" x="82.18" y="142.97" width="56" height="56" transform="translate(205.69 -8.6) rotate(60.81)"/>
      <line class="cls-10" x1="119.76" y1="149.7" x2="138.76" y2="137.7"/>
      <line class="cls-10" x1="128.2" y1="166.42" x2="151.76" y2="156.7"/>
      <line class="cls-10" x1="110.18" y1="190.39" x2="116.76" y2="209.7"/>
      <line class="cls-10" x1="124.76" y1="180.7" x2="138.76" y2="202.7"/>
      <line class="cls-10" x1="99.39" y1="186.39" x2="74.76" y2="199.7"/>
      <line class="cls-10" x1="87.16" y1="166.42" x2="65.76" y2="180.7"/>
      <line class="cls-10" x1="95.58" y1="161.56" x2="81.76" y2="141.7"/>
      <line class="cls-10" x1="110.18" y1="152.79" x2="99.76" y2="132.7"/>
    </g>
  </g>
</svg>