<?xml version="1.0" encoding="UTF-8"?>
<svg id="_Слой_2" data-name="Слой 2" xmlns="http://www.w3.org/2000/svg" viewBox="0 0 1141.93 1141.93">
  <defs>
    <style>
      .cls-1 {
        fill: none;
        stroke: #1d1d1b;
        stroke-linecap: round;
        stroke-miterlimit: 10;
        stroke-width: 62px;
      }
    </style>
  </defs>
  <g id="_Слой_1-2" data-name="Слой 1">
    <g>
      <circle class="cls-1" cx="570.97" cy="570.97" r="539.97"/>
      <g>
        <path d="M351.75,156.72c22.74,15.75,40.24,68.41,57.92,83.12,16.2,13.48,54.89-4.37,75.79-.56,8.75-30.98,28.14-61.81,56.14-77.93l.07,46.18c23-5.72,41.8-5.72,64.79,0l2.31-46.15c25.85,17.01,45.53,47.89,53.9,77.91l70.44,4.43,58.64-86.99h13.89c6.09,7.82,10.96,12.21,7.49,23.22-1.7,5.39-60.35,89.46-65.06,92.59-14.43,9.58-53.68-3.36-72.08-4.92,11.5,29.14,22.36,52.28,18.07,85.06-4.68,35.71-42.32,67.74-78.3,67.42,9.6,12.49,26.34,12.87,40.49,21.93,63.42,40.61,41.41,139.41-13,178.69l-36.74,21.04c249.9,20.47,47.32,422.9-122.91,254.28-84.43-83.63-90.49-247.78,58.02-254.28l-36.74-21.04c-54.41-39.28-76.41-138.07-13-178.69,14.15-9.06,30.89-9.45,40.49-21.93-36.51,1.4-73.69-32.03-78.3-67.42-4.27-32.8,6.55-55.9,18.07-85.06-18.41,1.56-57.65,14.5-72.08,4.92-4.72-3.13-61.78-85.66-64.43-93.04-3.24-9.01-3.41-14.79,2.23-22.77h13.89Z"/>
        <path d="M711.37,643.43c-5.08-4.92-30.62-19.57-30.7-22.42,4.56-3.38,9.49-12.15,13.95-14.04,23.27-9.84,120.01,62.83,142.92,79.23l59.85,217.98c3.03,29.72-30.18,38.61-44.47,11.53l-59.18-204.3c-36.55-17.9-55.38-41.82-82.38-67.98Z"/>
        <path d="M353.11,707.81c-24.2,57.43-30.48,146.28-56.72,199.84-14.81,30.23-39.72,26.63-46.51-4.31l65.4-221.7c5.14-7.41,91.21-64.17,102.6-68.58,20.04-7.75,37.03-12.14,49.58,7.95-41.52,27.2-66.47,66.86-114.34,86.8Z"/>
        <path d="M713.03,572.47l9.29-50.75c41.05,2.27,123.67-34.67,159.68-27.89,4.56.86,6,2.05,9.3,4.8,4.35,3.63,59.56,86.78,62.87,94.3,10.65,24.22-8.58,45.44-27.97,37.46-17.85-7.36-56.75-84.43-71.87-85.75l-141.31,27.83Z"/>
        <path d="M713.74,460.88l-19.28-38.41c2.46-12.16,95.26-8.07,111.02-18.75,13.95-9.54,42.02-115.46,58.12-136.05,12.24-15.66,36.26-12.38,39.34,7.12,4.59,29.09-54.49,136.02-64.56,170.99-14.82,14.76-100.41,14.25-124.64,15.1Z"/>
        <path d="M420.62,522.28l9.84,50.19-144.92-27.1c-24.78,6.91-60.84,124.48-99.91,70.05-2.44-6.94.56-12.33,2.97-18.53,2.99-7.69,61.39-97.48,66.91-99.87,31.42-13.62,126.67,25.64,165.11,25.25Z"/>
        <path d="M348.01,405.3l114.89,10.17-29.87,44.35c-32.22-9.21-103.54,4.82-121.87-24.7-8.96-14.42-56.4-132.77-59.48-148.88-3.71-19.43,4.46-38.19,27.31-31.89,17.89,4.93,58.2,127.84,69.02,150.95Z"/>
      </g>
    </g>
  </g>
</svg>