<?xml version="1.0" encoding="UTF-8"?>
<svg id="_Слой_2" data-name="Слой 2" xmlns="http://www.w3.org/2000/svg" viewBox="0 0 307.06 380.28">
  <defs>
    <style>
      .cls-1 {
        fill: #d1852c;
      }

      .cls-2 {
        fill: #b3b3b3;
      }
    </style>
  </defs>
  <g id="_Слой_1-2" data-name="Слой 1">
    <g>
      <g>
        <rect class="cls-1" x="-19.24" y="179.07" width="304" height="93" transform="translate(-127.52 197.93) rotate(-53.46)"/>
        <path d="M186.62,80.66l69.1,51.2-176.83,238.62-69.1-51.2L186.62,80.66M185.17,70.87L0,320.74l80.34,59.54,185.17-249.87-80.34-59.54h0Z"/>
      </g>
      <g>
        <polygon class="cls-2" points="189.59 70.41 203.71 48.44 224.57 35.76 230.34 16.04 243.59 4.85 301.38 68.27 285.55 76.33 285.63 87.62 264.3 88.07 272.92 109.02 263.55 108.12 262.24 124.25 189.59 70.41"/>
        <path d="M243.28,9.7l52.43,57.54-9.82,5-3.86,1.96.03,4.33.04,5.67-12.78.27-10.21.22,3.89,9.45,4.47,10.85h-.06s-7.07-.68-7.07-.68l-.58,7.08-.51,6.31-64.96-48.14,11.92-18.54,19.01-11.56,2.32-1.41.76-2.6,5.1-17.41,9.87-8.33M243.91,0l-16.63,14.04-5.69,19.43-20.39,12.4-16.34,25.4,80.34,59.54,1.53-18.87,11.62,1.11-8.89-21.59,19.68-.42-.1-12.57,18-9.17L243.91,0h0Z"/>
      </g>
    </g>
  </g>
</svg>