<?xml version="1.0" encoding="UTF-8"?>
<svg id="_Слой_2" data-name="Слой 2" xmlns="http://www.w3.org/2000/svg" viewBox="0 0 443.7 425.05">
  <defs>
    <style>
      .cls-1 {
        fill: #c69c6d;
      }

      .cls-2 {
        stroke: #000;
        stroke-miterlimit: 10;
        stroke-width: 7px;
      }

      .cls-2, .cls-3 {
        fill: #a67c52;
      }
    </style>
  </defs>
  <g id="_Слой_1-2" data-name="Слой 1">
    <g>
      <g>
        <polygon class="cls-3" points="5.19 255.33 32.27 220.77 436.62 200.84 278.74 420.38 5.19 255.33"/>
        <path d="M429.54,204.7l-151.75,211.02L10.39,254.38l23.65-30.19,395.5-19.49M443.7,196.99L30.5,217.35,0,256.29l279.7,168.76,164-228.06h0Z"/>
      </g>
      <g>
        <polygon class="cls-1" points="14.46 197.12 236.74 4.73 438.55 196.92 219.79 394.09 14.46 197.12"/>
        <path d="M236.62,9.45l196.78,187.4-213.53,192.47L35.34,212.3l-15.68-15.05L236.62,9.45M236.85,0L9.27,196.99l21.23,20.36,189.22,181.52,223.98-201.88L236.85,0h0Z"/>
      </g>
      <line class="cls-2" x1="47.05" y1="199.44" x2="67.11" y2="217.83"/>
      <line class="cls-2" x1="84.11" y1="231.83" x2="103.11" y2="249.83"/>
      <line class="cls-2" x1="122.11" y1="269.83" x2="139.11" y2="288.83"/>
      <line class="cls-2" x1="154.11" y1="299.83" x2="177.11" y2="318.83"/>
      <line class="cls-2" x1="193.11" y1="332.83" x2="214.64" y2="357.09"/>
      <line class="cls-2" x1="226.49" y1="344.96" x2="247.11" y2="327.83"/>
      <line class="cls-2" x1="262.11" y1="313.83" x2="281.43" y2="299.83"/>
      <line class="cls-2" x1="298.44" y1="279.33" x2="324.11" y2="262.83"/>
      <line class="cls-2" x1="337.3" y1="249.83" x2="360.11" y2="234.83"/>
      <line class="cls-2" x1="374.34" y1="217.83" x2="392.11" y2="205.83"/>
      <line class="cls-2" x1="406.11" y1="194.83" x2="422.31" y2="186.33"/>
      <line class="cls-2" x1="65.11" y1="181.83" x2="79.11" y2="167.83"/>
      <line class="cls-2" x1="97.11" y1="156.83" x2="117.11" y2="143.83"/>
      <line class="cls-2" x1="130.61" y1="130.57" x2="147.85" y2="114.38"/>
      <line class="cls-2" x1="165.61" y1="100.21" x2="183.11" y2="84.83"/>
      <line class="cls-2" x1="198.11" y1="70.83" x2="211.11" y2="54.83"/>
      <line class="cls-2" x1="226.49" y1="46.17" x2="244.11" y2="33.83"/>
      <line class="cls-2" x1="271.77" y1="391.68" x2="255.11" y2="382.83"/>
      <line class="cls-2" x1="281.43" y1="374.07" x2="292.97" y2="357.09"/>
      <line class="cls-2" x1="304.11" y1="340.83" x2="317.26" y2="327.83"/>
      <line class="cls-2" x1="326.98" y1="311.02" x2="337.3" y2="296.95"/>
      <line class="cls-2" x1="38.55" y1="234.83" x2="27.62" y2="249.83"/>
      <line class="cls-2" x1="47.05" y1="262.83" x2="60.41" y2="271.08"/>
      <line class="cls-2" x1="79.11" y1="281.77" x2="97.11" y2="291.49"/>
    </g>
  </g>
</svg>