<?xml version="1.0" encoding="UTF-8"?>
<svg id="_Слой_2" data-name="Слой 2" xmlns="http://www.w3.org/2000/svg" viewBox="0 0 190.77 202.08">
  <defs>
    <style>
      .cls-1 {
        fill: #5ed3ff;
      }

      .cls-2 {
        fill: #5ebaff;
      }

      .cls-3 {
        fill: #5eebff;
      }

      .cls-4 {
        stroke-linecap: round;
      }

      .cls-4, .cls-5 {
        fill: none;
        stroke: #000;
        stroke-linejoin: bevel;
        stroke-width: 5px;
      }

      .cls-6 {
        fill: #5e87ff;
      }

      .cls-7 {
        fill: #5ea5ff;
      }

      .cls-8 {
        fill: #5ed7ff;
      }

      .cls-9 {
        fill: #5e8cff;
      }

      .cls-10 {
        fill: #5e74ff;
      }

      .cls-11 {
        fill: #5ea8ff;
      }

      .cls-5 {
        stroke-linecap: square;
      }

      .cls-12 {
        fill: #5ec5ff;
      }

      .cls-13 {
        fill: #5ea6ff;
      }
    </style>
  </defs>
  <g id="_Слой_1-2" data-name="Слой 1">
    <g>
      <polygon class="cls-12" points="133.61 79.24 95.61 86.49 95.61 2.24 130.7 73.33 133.61 79.24"/>
      <polygon class="cls-6" points="189.61 51.24 161.61 69.24 156.22 63.76 95.61 2.24 189.61 51.24"/>
      <polygon class="cls-11" points="133.61 79.24 95.61 200.37 95.61 86.49 133.61 79.24"/>
      <polygon class="cls-7" points="161.61 69.24 133.61 79.24 130.7 73.33 95.61 2.24 156.22 63.76 161.61 69.24"/>
      <polygon class="cls-9" points="161.61 69.24 95.61 200.37 133.61 79.24 161.61 69.24"/>
      <polygon class="cls-10" points="189.61 51.24 95.61 200.37 161.61 69.24 189.61 51.24"/>
      <polygon class="cls-8" points="58.11 79.24 96.11 86.49 96.11 2.24 61.03 73.33 58.11 79.24"/>
      <polygon class="cls-12" points="2.11 51.24 30.11 69.24 35.51 63.76 96.11 2.24 2.11 51.24"/>
      <polygon class="cls-2" points="58.11 79.24 96.11 200.37 96.11 86.49 58.11 79.24"/>
      <polygon class="cls-3" points="30.11 69.24 58.11 79.24 61.03 73.33 96.11 2.24 35.51 63.76 30.11 69.24"/>
      <polygon class="cls-1" points="30.11 69.24 96.11 200.37 58.11 79.24 30.11 69.24"/>
      <polygon class="cls-13" points="2.11 51.24 96.11 200.37 30.11 69.24 2.11 51.24"/>
      <polygon class="cls-5" points="95.86 2.75 95.61 3.25 95.61 2.24 95.72 2.45 95.78 2.58 95.86 2.75"/>
      <polygon class="cls-5" points="96.11 2.5 96.11 2.75 95.95 2.58 95.86 2.49 95.61 2.24 95.86 2.37 95.95 2.41 96.01 2.45 96.11 2.5"/>
      <polygon class="cls-5" points="95.86 199.57 95.8 199.76 95.78 199.84 95.61 200.37 95.61 198.78 95.86 199.57"/>
      <polygon class="cls-5" points="96.11 2.75 96.11 3.25 95.86 2.75 95.78 2.58 95.72 2.45 95.61 2.24 95.86 2.49 95.95 2.58 96.11 2.75"/>
      <polygon class="cls-5" points="96.11 198.78 96.11 199.38 95.92 199.76 95.86 199.87 95.83 199.93 95.61 200.37 95.78 199.84 95.8 199.76 95.86 199.57 96.11 198.78"/>
      <polygon class="cls-5" points="96.11 199.38 96.11 199.58 95.95 199.84 95.9 199.93 95.86 199.97 95.61 200.37 95.83 199.93 95.86 199.87 95.92 199.76 96.11 199.38"/>
      <polygon class="cls-5" points="96.11 2.24 96.11 3.25 95.86 2.75 95.95 2.58 96.01 2.45 96.11 2.24"/>
      <path class="cls-4" d="M96.11,199.58L189.61,51.24,96.11,2.5M95.61,2.5L2.11,51.24l93.5,148.34"/>
      <polygon class="cls-5" points="96.11 2.24 95.86 2.49 95.78 2.58 95.61 2.75 95.61 2.5 95.72 2.45 95.78 2.41 95.86 2.37 96.11 2.24"/>
      <polygon class="cls-5" points="96.11 198.78 96.11 200.37 95.95 199.84 95.92 199.76 95.86 199.57 96.11 198.78"/>
      <polygon class="cls-5" points="96.11 2.24 96.01 2.45 95.95 2.58 95.86 2.75 95.61 3.25 95.61 2.75 95.78 2.58 95.86 2.49 96.11 2.24"/>
      <polygon class="cls-5" points="96.11 200.37 95.9 199.93 95.86 199.87 95.8 199.76 95.61 199.38 95.61 198.78 95.86 199.57 95.92 199.76 95.95 199.84 96.11 200.37"/>
      <polygon class="cls-5" points="96.11 200.37 95.86 199.97 95.83 199.93 95.78 199.84 95.61 199.58 95.61 199.38 95.8 199.76 95.86 199.87 95.9 199.93 96.11 200.37"/>
    </g>
  </g>
</svg>