<?xml version="1.0" encoding="UTF-8"?>
<svg id="_Слой_2" data-name="Слой 2" xmlns="http://www.w3.org/2000/svg" viewBox="0 0 488.12 441.09">
  <defs>
    <style>
      .cls-1 {
        fill: #006b55;
      }

      .cls-1, .cls-2, .cls-3, .cls-4, .cls-5, .cls-6, .cls-7, .cls-8, .cls-9, .cls-10 {
        stroke: #000;
        stroke-linecap: round;
        stroke-linejoin: bevel;
        stroke-width: 2px;
      }

      .cls-2 {
        fill: #00548e;
      }

      .cls-3 {
        fill: #333;
      }

      .cls-4 {
        fill: #007946;
      }

      .cls-5 {
        fill: #00311c;
      }

      .cls-6 {
        fill: #005143;
      }

      .cls-7 {
        fill: #b3b3b3;
      }

      .cls-8 {
        fill: none;
      }

      .cls-9 {
        fill: #4d4d4d;
      }

      .cls-10 {
        fill: #005437;
      }
    </style>
  </defs>
  <g id="_Слой_1-2" data-name="Слой 1">
    <g>
      <g>
        <rect class="cls-1" x="12.74" y="202.59" width="364.66" height="62.08" transform="translate(-108.07 206.36) rotate(-45)"/>
        <polygon class="cls-7" points="427.86 .84 345.94 126.65 302.04 82.75 427.86 .84"/>
        <polygon class="cls-6" points="44.19 340.61 10.43 306.85 111.06 273.74 44.19 340.61"/>
      </g>
      <g>
        <circle class="cls-9" cx="57.68" cy="409.89" r="30.2"/>
        <circle class="cls-3" cx="57.68" cy="409.89" r="13.83"/>
      </g>
      <g>
        <circle class="cls-9" cx="146.61" cy="409.89" r="30.2"/>
        <circle class="cls-3" cx="146.61" cy="409.89" r="13.83"/>
      </g>
      <g>
        <circle class="cls-9" cx="146.61" cy="409.89" r="30.2"/>
        <circle class="cls-3" cx="146.61" cy="409.89" r="13.83"/>
      </g>
      <path class="cls-5" d="M126.6,377.51l-16.34,17.99c-4.8,5.29-13.12,5.28-17.91-.01l-16.28-17.98h50.53Z"/>
      <g>
        <circle class="cls-9" cx="285.31" cy="409.89" r="30.2"/>
        <circle class="cls-3" cx="285.31" cy="409.89" r="13.83"/>
      </g>
      <g>
        <circle class="cls-9" cx="374.24" cy="409.89" r="30.2"/>
        <circle class="cls-3" cx="374.24" cy="409.89" r="13.83"/>
      </g>
      <g>
        <circle class="cls-9" cx="374.24" cy="409.89" r="30.2"/>
        <circle class="cls-3" cx="374.24" cy="409.89" r="13.83"/>
      </g>
      <path class="cls-5" d="M354.24,377.51l-16.34,17.99c-4.8,5.29-13.12,5.28-17.91-.01l-16.28-17.98h50.53Z"/>
      <polygon class="cls-10" points="146.61 343.33 146.61 377.51 27.48 377.51 19.65 407.65 .99 407.65 11.82 343.33 146.61 343.33"/>
      <path class="cls-4" d="M255.13,343.14l-.02-24.35c-52.57,2.86-108.5,24.55-108.5,24.55v34.17h30.2l10.54,46.21h58.5l9.3-46.21-.02-34.37ZM219.32,405.07c0,5.13-4.16,9.29-9.29,9.29h-10.5c-5.13,0-9.29-4.16-9.29-9.29v-54.69c0-5.13,4.16-9.29,9.29-9.29h10.5c5.13,0,9.29,4.16,9.29,9.29v54.69ZM246.72,359.55c0,4.32-3.51,7.83-7.83,7.83s-7.83-3.51-7.83-7.83v-13.42c0-4.32,3.51-7.83,7.83-7.83,2.16,0,4.12.88,5.54,2.29,1.42,1.42,2.29,3.38,2.29,5.54v13.42Z"/>
      <path class="cls-4" d="M451.98,308.1h-77.74v69.41l21.25-.06,17.73,36.91h45.72l16.66-14.91v-44.37l12.18-34.12-35.79-12.86ZM413.95,382.33h-9.51l-16.22-29.49v-36.91h25.73v66.4Z"/>
      <rect class="cls-10" x="315.52" y="312.2" width="58.73" height="65.31"/>
      <rect class="cls-10" x="190.23" y="341.1" width="29.08" height="73.27" rx="9.29" ry="9.29"/>
      <path class="cls-2" d="M246.72,346.13v13.42c0,4.32-3.51,7.83-7.83,7.83s-7.83-3.51-7.83-7.83v-13.42c0-4.32,3.51-7.83,7.83-7.83,2.16,0,4.12.88,5.54,2.29,1.42,1.42,2.29,3.38,2.29,5.54Z"/>
      <polygon class="cls-10" points="315.52 312.2 315.52 377.51 255.15 377.51 255.13 343.14 255.15 341.26 255.15 312.2 315.52 312.2"/>
      <polyline class="cls-8" points="255.15 377.51 254.71 377.51 255.13 343.14"/>
      <polygon class="cls-10" points="413.95 315.93 413.95 382.33 404.44 382.33 388.23 352.84 388.23 315.93 413.95 315.93"/>
      <polygon class="cls-10" points="448.07 315.93 448.07 382.33 438.56 382.33 422.34 352.84 422.34 315.93 448.07 315.93"/>
      <polygon class="cls-2" points="457.4 315.93 478.83 323.2 470.18 349.13 457.4 341.1 457.4 315.93"/>
      <rect class="cls-2" x="393.82" y="322.08" width="13.98" height="19.02"/>
      <rect class="cls-2" x="427.56" y="322.08" width="15.5" height="19.02"/>
      <line class="cls-10" x1="374.24" y1="326.54" x2="254.71" y2="326.54"/>
      <line class="cls-10" x1="374.24" y1="347.46" x2="254.71" y2="347.46"/>
      <rect class="cls-2" x="198.62" y="352.84" width="12.86" height="18.46" rx="4.36" ry="4.36"/>
    </g>
  </g>
</svg>