<?xml version="1.0" encoding="UTF-8"?>
<svg id="_Слой_2" data-name="Слой 2" xmlns="http://www.w3.org/2000/svg" viewBox="0 0 345 343.27">
  <defs>
    <style>
      .cls-1 {
        fill: #93cae2;
      }

      .cls-2 {
        fill: #4c94b5;
      }

      .cls-3 {
        fill: #81bad4;
      }
    </style>
  </defs>
  <g id="_Слой_1-2" data-name="Слой 1">
    <g>
      <g>
        <path class="cls-2" d="M250.4,341.77c-68.41,0-228.15-44.05-240.28-47.42l-7.46-19.07c80.73,31.7,247.29,48.45,260.39,49.73l7.77,14.68c-4.97,1.38-11.83,2.08-20.43,2.08Z"/>
        <path d="M5.3,277.89c43.41,16.39,108.92,28.51,157.37,35.91,49.25,7.53,90.85,11.77,99.43,12.61l6.5,12.28c-4.65,1.04-10.75,1.57-18.2,1.57-67.08,0-222.53-42.56-239.15-47.16l-5.95-15.21M0,272.59l9,23s169.6,47.68,241.4,47.68c9.41,0,17.15-.82,22.6-2.68l-9-17S83,306.59,0,272.59h0Z"/>
      </g>
      <path class="cls-3" d="M342,157.59v.04c-.69,3.23-43.27,92.54-78,165.96l-91-138V0s116,120.59,169,157.59Z"/>
      <path class="cls-1" d="M264,323.59S83,306.59,0,272.59c0,0,21-51,35-54l138-33,91,138Z"/>
      <path d="M179,14.8c28.88,29.59,110.49,111.93,155.64,144.91-6.32,14.16-29.51,63.08-52.03,110.59-7.41,15.64-14.97,31.58-22.22,46.91-26.86-2.73-176.14-18.9-252.42-47.92,2.17-4.88,5.62-12.32,9.62-19.82,12.52-23.45,18.43-24.95,18.67-25.01h.07s.07-.03.07-.03l138-33,4.6-1.1V14.8M173,0v185.59l-138,33c-14,3-35,54-35,54,83,34,264,51,264,51,34.73-73.42,77.31-162.73,77.99-165.96v-.04C289,120.59,173,0,173,0h0Z"/>
      <g>
        <path class="cls-2" d="M265.68,323.55c7.7-16.27,15.77-33.3,23.68-49.99,27.61-58.25,46.35-97.84,52.18-110.97l1.9,8.84-70.58,165.67-7.18-13.55Z"/>
        <path d="M341.03,167.37l.84,3.92-69.16,162.34-5.35-10.11c7.61-16.08,15.58-32.9,23.39-49.38,27.33-57.67,43.43-91.71,50.28-106.77M342,157.59v.04c-.69,3.23-43.27,92.54-78,165.96l9,17,72-169-3-14h0Z"/>
      </g>
    </g>
  </g>
</svg>