<?xml version="1.0" encoding="UTF-8"?>
<svg id="_Слой_2" data-name="Слой 2" xmlns="http://www.w3.org/2000/svg" viewBox="0 0 319.6 237">
  <defs>
    <style>
      .cls-1 {
        fill: #ffcd00;
      }
    </style>
  </defs>
  <g id="_Слой_1-2" data-name="Слой 1">
    <g>
      <g>
        <polygon class="cls-1" points="3.22 234.5 19.99 168.5 87.11 168.5 103.89 234.5 3.22 234.5"/>
        <path d="M85.16,171l15.51,61H6.43l15.51-61h63.22M89.05,166H18.05L0,237h107.1l-18.05-71h0Z"/>
      </g>
      <g>
        <polygon class="cls-1" points="24.09 163.5 116.59 71 180.51 71 88.01 163.5 24.09 163.5"/>
        <path d="M174.48,73.5l-87.5,87.5H30.12l87.5-87.5h56.86M186.55,68.5h-71L18.05,166h71l97.5-97.5h0Z"/>
      </g>
      <g>
        <polygon class="cls-1" points="91.82 166.76 185.21 73.38 201.83 138.74 108.44 232.12 91.82 166.76"/>
        <path d="M183.87,78.25l15.18,59.72-89.27,89.27-15.18-59.72,89.27-89.27M186.55,68.5l-97.5,97.5,18.05,71,97.5-97.5-18.05-71h0Z"/>
      </g>
      <g>
        <polygon class="cls-1" points="118.22 234.5 134.99 168.5 202.11 168.5 218.89 234.5 118.22 234.5"/>
        <path d="M200.16,171l15.51,61h-94.24l15.51-61h63.22M204.05,166h-71l-18.05,71h107.1l-18.05-71h0Z"/>
      </g>
      <g>
        <polygon class="cls-1" points="139.09 163.5 231.59 71 295.51 71 203.01 163.5 139.09 163.5"/>
        <path d="M289.48,73.5l-87.5,87.5h-56.86l87.5-87.5h56.86M301.55,68.5h-71l-97.5,97.5h71l97.5-97.5h0Z"/>
      </g>
      <g>
        <polygon class="cls-1" points="206.82 166.76 300.21 73.38 316.83 138.74 223.44 232.12 206.82 166.76"/>
        <path d="M298.87,78.25l15.18,59.72-89.27,89.27-15.18-59.72,89.27-89.27M301.55,68.5l-97.5,97.5,18.05,71,97.5-97.5-18.05-71h0Z"/>
      </g>
      <g>
        <polygon class="cls-1" points="59.72 166 76.49 100 143.61 100 160.39 166 59.72 166"/>
        <path d="M141.66,102.5l15.51,61H62.93l15.51-61h63.22M145.55,97.5h-71l-18.05,71h107.1l-18.05-71h0Z"/>
      </g>
      <g>
        <polygon class="cls-1" points="80.59 95 173.09 2.5 237.01 2.5 144.51 95 80.59 95"/>
        <path d="M230.98,5l-87.5,87.5h-56.86L174.12,5h56.86M243.05,0h-71l-97.5,97.5h71L243.05,0h0Z"/>
      </g>
      <g>
        <polygon class="cls-1" points="148.32 98.26 241.71 4.88 258.33 70.24 164.94 163.62 148.32 98.26"/>
        <path d="M240.37,9.75l15.18,59.72-89.27,89.27-15.18-59.72L240.37,9.75M243.05,0l-97.5,97.5,18.05,71,97.5-97.5L243.05,0h0Z"/>
      </g>
    </g>
  </g>
</svg>