<?xml version="1.0" encoding="UTF-8"?>
<svg id="_Слой_2" data-name="Слой 2" xmlns="http://www.w3.org/2000/svg" viewBox="0 0 259.19 487.81">
  <defs>
    <style>
      .cls-1 {
        fill: #fbb03b;
        stroke: #000;
        stroke-miterlimit: 10;
        stroke-width: 10px;
      }

      .cls-2 {
        fill: #fcd649;
      }
    </style>
  </defs>
  <g id="_Слой_1-2" data-name="Слой 1">
    <g>
      <path class="cls-1" d="M253.6,358.81c0,68.48-55.52,124-124,124S5.6,427.29,5.6,358.81c0,0-16.5-96.58,124-348.54,140.5,251.96,124,348.54,124,348.54Z"/>
      <path class="cls-2" d="M53.1,418.81c-.67,1.99,187,97,166-115,0,0-7,138-166,115Z"/>
      <path class="cls-2" d="M39.1,324.81s-5.64-48.54,28.68-91.27c34.32-42.73,46.32-114.73,46.32-114.73,0,0,9.6,100.43-9,126-24,33-34,18-66,80Z"/>
    </g>
  </g>
</svg>