<?xml version="1.0" encoding="UTF-8"?>
<svg id="_Слой_2" data-name="Слой 2" xmlns="http://www.w3.org/2000/svg" viewBox="0 0 280.25 460.09">
  <defs>
    <style>
      .cls-1 {
        fill: gray;
      }

      .cls-1, .cls-2 {
        stroke: #000;
        stroke-miterlimit: 10;
        stroke-width: 7px;
      }

      .cls-2 {
        fill: #999;
      }
    </style>
  </defs>
  <g id="_Слой_1-2" data-name="Слой 1">
    <g>
      <path class="cls-2" d="M209.29,455.94c-37.68,4.25-68.38-13.09-92.15-31.21-43.48-33.12-68.34-85.19-68.34-139.85v-155.16c6.08,1.89,12.55,2.92,19.26,2.92,5.98,0,11.77-.81,17.25-2.33v146.82c0,36.2,21.19,89.18,49.98,111.12,15.75,12,41.47,28.21,66.57,27.96,52.25-.52,43.93-93.19,43.93-93.19l-29.29,19.97,49.26-99.85s47.93,201.03-56.47,212.81Z"/>
      <path class="cls-1" d="M68.07,3.5C32.4,3.5,3.5,32.4,3.5,68.07c0,28.96,19.05,53.47,45.3,61.65,6.08,1.89,12.55,2.92,19.26,2.92,5.98,0,11.77-.81,17.25-2.33,27.29-7.55,47.31-32.55,47.31-62.24,0-35.67-28.9-64.57-64.57-64.57ZM85.32,92.74c-4.89,3.43-10.84,5.45-17.25,5.45-7.32,0-14.05-2.62-19.26-6.99-6.63-5.51-10.85-13.82-10.85-23.12,0-16.63,13.49-30.11,30.11-30.11s30.11,13.49,30.11,30.11c0,10.21-5.09,19.24-12.86,24.67Z"/>
    </g>
  </g>
</svg>