<?xml version="1.0" encoding="UTF-8"?>
<svg id="_Слой_2" data-name="Слой 2" xmlns="http://www.w3.org/2000/svg" viewBox="0 0 305.44 485.7">
  <defs>
    <style>
      .cls-1 {
        fill: #39b54a;
      }

      .cls-2 {
        fill: #009245;
      }

      .cls-3 {
        fill: #999;
        stroke-width: 7px;
      }

      .cls-3, .cls-4 {
        stroke: #000;
        stroke-miterlimit: 10;
      }

      .cls-4 {
        fill: none;
        stroke-width: 10px;
      }
    </style>
  </defs>
  <g id="_Слой_1-2" data-name="Слой 1">
    <g>
      <path class="cls-1" d="M288.34,6.62L40.71,394.79s-1.89-2.81-4.74-8.03C12.71,344.14-74.2,141.38,288.34,6.62Z"/>
      <path class="cls-2" d="M40.71,394.79L288.34,6.62s95.03,370.77-247.62,388.17Z"/>
      <path class="cls-4" d="M40.71,394.78s-1.89-2.81-4.74-8.03C12.71,344.13-74.2,141.38,288.34,6.62c0,0,95.03,370.76-247.63,388.16Z"/>
      <g>
        <path class="cls-2" d="M5.14,474.73c-7.41-17.74,12.26-47.35,27.63-65.85-11.59,41.05-9.73,61.55-6.4,71.37l-21.23-5.52Z"/>
        <path d="M25.19,424.46c-5.62,24.95-5.55,40.87-3.65,50.92l-13.73-3.57c-2.84-9.54,2.03-24.42,13.97-42.4,1.12-1.68,2.26-3.33,3.4-4.94M40.71,394.78S-12.33,448.7,2.67,477.7l30.75,8s-17.67-13.84,7.29-90.92h0Z"/>
      </g>
      <line class="cls-3" x1="288.34" y1="6.62" x2="40.71" y2="394.78"/>
    </g>
  </g>
</svg>