<?xml version="1.0" encoding="UTF-8"?>
<svg id="_Слой_2" data-name="Слой 2" xmlns="http://www.w3.org/2000/svg" viewBox="0 0 225.12 303.52">
  <defs>
    <style>
      .cls-1 {
        fill: #68a4c3;
      }

      .cls-1, .cls-2, .cls-3, .cls-4 {
        stroke: #000;
        stroke-miterlimit: 10;
      }

      .cls-1, .cls-3 {
        stroke-width: 2px;
      }

      .cls-2 {
        fill: #fbb911;
        stroke-width: 4px;
      }

      .cls-3 {
        fill: #75cdff;
      }

      .cls-4 {
        fill: #ffcd00;
        stroke-width: 5px;
      }
    </style>
  </defs>
  <g id="_Слой_1-2" data-name="Слой 1">
    <g>
      <polygon class="cls-1" points="151.48 23.23 112.93 83.73 74.37 23.23 112.93 35.42 151.48 23.23"/>
      <polygon class="cls-2" points="142.53 86.71 112.93 84.34 83.33 86.71 98.93 62.38 126.93 62.38 142.53 86.71"/>
      <polygon class="cls-3" points="151.48 23.23 112.93 35.42 74.37 23.23 112.93 1.15 151.48 23.23"/>
      <path class="cls-4" d="M112.56,80.91c-60.78,0-110.06,49.28-110.06,110.06s49.28,110.06,110.06,110.06,110.06-49.28,110.06-110.06-49.28-110.06-110.06-110.06ZM112.56,280.15c-49.26,0-89.18-39.93-89.18-89.18s39.93-89.18,89.18-89.18,89.18,39.93,89.18,89.18-39.93,89.18-89.18,89.18Z"/>
    </g>
  </g>
</svg>