<?xml version="1.0" encoding="UTF-8"?>
<svg id="_Слой_2" data-name="Слой 2" xmlns="http://www.w3.org/2000/svg" viewBox="0 0 338.05 292.76">
  <defs>
    <style>
      .cls-1 {
        stroke-width: 7px;
      }

      .cls-1, .cls-2 {
        fill: #999;
        stroke: #000;
        stroke-miterlimit: 10;
      }
    </style>
  </defs>
  <g id="_Слой_1-2" data-name="Слой 1">
    <g>
      <path class="cls-1" d="M295.65,79.94l-5.96-10.32C265.91,32.13,225.13,6.47,178.19,3.5h-18.34c-46.94,2.97-87.71,28.63-111.5,66.12l-5.96,10.32c-10.33,19.76-16.17,42.23-16.17,66.07,0,78.86,63.94,142.8,142.8,142.8s142.8-63.94,142.8-142.8c0-23.84-5.85-46.31-16.17-66.07ZM169.03,219.77c-40.74,0-73.76-33.03-73.76-73.76s33.03-73.76,73.76-73.76,73.76,33.03,73.76,73.76-33.03,73.76-73.76,73.76Z"/>
      <path class="cls-1" d="M159.86,3.5c-46.94,2.97-87.71,28.63-111.5,66.12L86.53,3.5h73.32Z"/>
      <path class="cls-1" d="M289.69,69.62C265.91,32.13,225.13,6.47,178.19,3.5h73.32l38.17,66.12Z"/>
      <path class="cls-1" d="M334.01,146.38l-82.49,142.89H86.53L4.04,146.38l38.36-66.44c-10.33,19.76-16.17,42.23-16.17,66.07,0,78.86,63.94,142.8,142.8,142.8s142.8-63.94,142.8-142.8c0-23.84-5.85-46.31-16.17-66.07l38.36,66.44Z"/>
      <path class="cls-2" d="M295.65,79.94c-1.85-3.53-3.83-6.97-5.96-10.32C265.91,32.13,225.13,6.47,178.19,3.5c-3.03-.19-6.09-.29-9.17-.29s-6.14.1-9.17.29c-46.94,2.97-87.71,28.63-111.5,66.12-2.13,3.34-4.12,6.79-5.96,10.32-10.33,19.76-16.17,42.23-16.17,66.07,0,78.86,63.94,142.8,142.8,142.8s142.8-63.94,142.8-142.8c0-23.84-5.85-46.31-16.17-66.07ZM169.03,219.77c-40.74,0-73.76-33.03-73.76-73.76s33.03-73.76,73.76-73.76,73.76,33.03,73.76,73.76-33.03,73.76-73.76,73.76Z"/>
    </g>
  </g>
</svg>