<?xml version="1.0" encoding="UTF-8"?>
<svg id="_Слой_2" data-name="Слой 2" xmlns="http://www.w3.org/2000/svg" viewBox="0 0 494.89 318.92">
  <defs>
    <style>
      .cls-1 {
        fill: gray;
      }

      .cls-1, .cls-2, .cls-3, .cls-4 {
        stroke: #000;
        stroke-miterlimit: 10;
        stroke-width: 7px;
      }

      .cls-2 {
        fill: #999;
      }

      .cls-3 {
        fill: #b3b3b3;
      }

      .cls-4 {
        fill: #666;
      }
    </style>
  </defs>
  <g id="_Слой_1-2" data-name="Слой 1">
    <g>
      <path class="cls-4" d="M490.33,240.4l-129.23-81.31,56.15-112.25c21.2,36.7,61.55,114.63,73.08,193.56Z"/>
      <path class="cls-2" d="M451.25,295.02c-59.62,11.38-179.57,27.68-341.33,16.84-15.05-1.01-28.8-8.89-37.21-21.41L11.77,199.79l252.25,15.3c57.08,58.98,184.92,79.56,187.2,79.92h.03Z"/>
      <path class="cls-3" d="M417.25,46.84l-56.15,112.25c-18.22,36.42-56.42,58.46-97.08,56l-252.25-15.3c-12.97-19.3-10.47-45.08,5.97-61.52L138.26,17.75c10.25-10.25,24.53-15.39,38.96-14.04l202.5,19.07c15.67,1.48,29.66,10.43,37.53,24.06Z"/>
      <path class="cls-1" d="M451.25,295.02h-.03c-2.28-.37-130.12-20.95-187.2-79.93,40.66,2.46,78.86-19.58,97.08-56l129.23,81.31c3.75,25.71-13.56,49.75-39.08,54.62Z"/>
    </g>
  </g>
</svg>