<?xml version="1.0" encoding="UTF-8"?>
<svg id="_Слой_2" data-name="Слой 2" xmlns="http://www.w3.org/2000/svg" viewBox="0 0 170 316">
  <defs>
    <style>
      .cls-1 {
        fill: #a67c52;
      }

      .cls-2 {
        fill: #8c6239;
      }
    </style>
  </defs>
  <g id="_Слой_1-2" data-name="Слой 1">
    <g>
      <g>
        <path class="cls-2" d="M85,313c-39.75,0-82-9.81-82-28V31h6c0,10.41,31.21,22,76,22s76-11.59,76-22h6v254c0,18.19-42.25,28-82,28Z"/>
        <path d="M164,31v254c0,13.81-35.37,25-79,25s-79-11.19-79-25V31c0,13.81,35.37,25,79,25s79-11.19,79-25M170,31h-12c0,2.06-3.96,7.22-18.95,11.96-14.35,4.54-33.55,7.04-54.05,7.04s-39.7-2.5-54.05-7.04c-14.99-4.74-18.95-9.9-18.95-11.96H0v254c0,6.73,4.74,16.25,27.33,23.4,15.49,4.9,35.97,7.6,57.67,7.6s42.18-2.7,57.67-7.6c22.59-7.15,27.33-16.67,27.33-23.4V31h0Z"/>
      </g>
      <g>
        <path class="cls-1" d="M85,59C45.25,59,3,49.19,3,31S45.25,3,85,3s82,9.81,82,28-42.25,28-82,28Z"/>
        <path d="M85,6c43.63,0,79,11.19,79,25s-35.37,25-79,25S6,44.81,6,31,41.37,6,85,6M85,0c-21.7,0-42.18,2.7-57.67,7.6C4.74,14.75,0,24.27,0,31s4.74,16.25,27.33,23.4c15.49,4.9,35.97,7.6,57.67,7.6s42.18-2.7,57.67-7.6c22.59-7.15,27.33-16.67,27.33-23.4s-4.74-16.25-27.33-23.4C127.18,2.7,106.7,0,85,0h0Z"/>
      </g>
    </g>
  </g>
</svg>