<?xml version="1.0" encoding="UTF-8"?>
<svg id="_Слой_2" data-name="Слой 2" xmlns="http://www.w3.org/2000/svg" viewBox="0 0 172.36 373.57">
  <defs>
    <style>
      .cls-1 {
        fill: #754c24;
      }
    </style>
  </defs>
  <g id="_Слой_1-2" data-name="Слой 1">
    <g>
      <polygon class="cls-1" points="33.98 370.57 81.19 169.16 23.92 133.62 3.68 35.75 21.87 35.75 43.45 112.91 93.85 143.02 109.78 24.2 129.67 7.37 105.54 178.37 96.15 211.22 150.12 166.33 150.6 97.75 169.36 72.43 169.36 173.2 92.26 239.41 58 370.57 33.98 370.57"/>
      <path d="M125.6,14.75l-23,163-12,42,62.51-52,.49-69,12.76-17.23v90.3l-76.76,65.93-33.91,129.82h-17.92l46.83-199.82-58-36L7.37,38.75h12.23l21.29,76.12,55.33,33.06,16.38-122.18,13-11M133.74,0l-12.02,10.17-13,11-1.76,1.49-.31,2.29-15.17,113.16-45.46-27.16L25.38,37.13l-1.23-4.38H0l1.49,7.21,19.23,93,.52,2.52,2.19,1.36,54.34,33.73-45.85,195.63-1.73,7.37h30.12l1.17-4.48,33.44-128.01,75.34-64.71,2.09-1.8V63.33l-10.82,14.61-12.76,17.23-1.16,1.57v1.96s-.48,66.21-.48,66.21l-45.42,37.78,6.66-23.3.11-.4.06-.41L131.54,15.59l2.2-15.59h0Z"/>
    </g>
  </g>
</svg>