<?xml version="1.0" encoding="UTF-8"?>
<svg id="_Слой_2" data-name="Слой 2" xmlns="http://www.w3.org/2000/svg" viewBox="0 0 309 354.16">
  <defs>
    <style>
      .cls-1 {
        stroke-width: 5px;
      }

      .cls-1, .cls-2, .cls-3, .cls-4 {
        stroke-miterlimit: 10;
      }

      .cls-1, .cls-3 {
        fill: #4d4d4d;
      }

      .cls-1, .cls-3, .cls-4 {
        stroke: #000;
      }

      .cls-2 {
        stroke: #cf6b00;
      }

      .cls-2, .cls-4 {
        fill: none;
        stroke-width: 3px;
      }

      .cls-3 {
        stroke-width: 4px;
      }

      .cls-5 {
        fill: #333;
      }

      .cls-6 {
        fill: #f5b88c;
      }

      .cls-7 {
        fill: #f58838;
      }
    </style>
  </defs>
  <g id="_Слой_1-2" data-name="Слой 1">
    <g>
      <ellipse class="cls-3" cx="154.5" cy="308.46" rx="152" ry="43.71"/>
      <rect class="cls-5" x="79.5" y="61.28" width="150" height="250.19"/>
      <path class="cls-6" d="M259.5,92.55c0,.13-.01.26-.02.38-1.07,10.86-47.88,19.59-105.48,19.59s-104.41-8.73-105.48-19.59c-.01-.12-.02-.25-.02-.38,0-11.03,47.23-19.97,105.5-19.97s105.5,8.94,105.5,19.97Z"/>
      <ellipse class="cls-5" cx="154.5" cy="90.29" rx="75" ry="10.17"/>
      <ellipse class="cls-5" cx="154.5" cy="311.85" rx="75" ry="10.17"/>
      <path class="cls-7" d="M259.5,288.11h-.02c.01.12.02.25.02.38,0,11.03-47.23,19.97-105.5,19.97s-105.5-8.94-105.5-19.97c0-.13.01-.26.02-.38h-.02V92.93h.02c1.07,10.86,47.88,19.59,105.48,19.59s104.41-8.73,105.48-19.59h.02v195.18Z"/>
      <line class="cls-4" x1="259.48" y1="92.93" x2="259.5" y2="92.93"/>
      <path class="cls-2" d="M48.5,112.83h.02c1.07,10.86,47.88,19.59,105.48,19.59s104.41-8.73,105.48-19.59"/>
      <path class="cls-2" d="M48.5,132.83h.02c1.07,10.86,47.88,19.59,105.48,19.59s104.41-8.73,105.48-19.59"/>
      <path class="cls-2" d="M48.5,152.83h.02c1.07,10.86,47.88,19.59,105.48,19.59s104.41-8.73,105.48-19.59"/>
      <path class="cls-2" d="M48.5,167.83h.02c1.07,10.86,47.88,19.59,105.48,19.59s104.41-8.73,105.48-19.59"/>
      <path class="cls-2" d="M48.5,184.83h.02c1.07,10.86,47.88,19.59,105.48,19.59s104.41-8.73,105.48-19.59"/>
      <path class="cls-2" d="M48.5,202.83h.02c1.07,10.86,47.88,19.59,105.48,19.59s104.41-8.73,105.48-19.59"/>
      <path class="cls-2" d="M48.5,224.83h.02c1.07,10.86,47.88,19.59,105.48,19.59s104.41-8.73,105.48-19.59"/>
      <path class="cls-2" d="M48.5,239.83h.02c1.07,10.86,47.88,19.59,105.48,19.59s104.41-8.73,105.48-19.59"/>
      <path class="cls-2" d="M48.5,259.83h.02c1.07,10.86,47.88,19.59,105.48,19.59s104.41-8.73,105.48-19.59"/>
      <path class="cls-2" d="M48.5,276.83h.02c1.07,10.86,47.88,19.59,105.48,19.59s104.41-8.73,105.48-19.59"/>
      <rect class="cls-5" x="79.5" y="75.34" width="150" height="14.95"/>
      <ellipse class="cls-1" cx="154.5" cy="46.21" rx="152" ry="43.71"/>
    </g>
  </g>
</svg>