<?xml version="1.0" encoding="UTF-8"?>
<svg id="_Слой_2" data-name="Слой 2" xmlns="http://www.w3.org/2000/svg" viewBox="0 0 1277.1 1425.34">
  <defs>
    <style>
      .cls-1 {
        fill: #fdcd11;
        stroke-width: 45px;
      }

      .cls-1, .cls-2, .cls-3, .cls-4, .cls-5, .cls-6, .cls-7, .cls-8, .cls-9 {
        stroke: #1d1d1b;
        stroke-linejoin: round;
      }

      .cls-1, .cls-2, .cls-3, .cls-4, .cls-5, .cls-7, .cls-8, .cls-9 {
        stroke-linecap: round;
      }

      .cls-2 {
        fill: #f39200;
        stroke-width: 27px;
      }

      .cls-3, .cls-4, .cls-5, .cls-9 {
        stroke-width: 15px;
      }

      .cls-3, .cls-6, .cls-7, .cls-8 {
        fill: none;
      }

      .cls-4 {
        fill: #3c3c3b;
      }

      .cls-5 {
        fill: #1d1d1b;
      }

      .cls-6 {
        stroke-width: 49px;
      }

      .cls-7 {
        stroke-width: 11px;
      }

      .cls-8 {
        stroke-width: 30px;
      }

      .cls-9 {
        fill: #8e8c6b;
      }
    </style>
  </defs>
  <g id="_Слой_1-2" data-name="Слой 1">
    <g>
      <path class="cls-3" d="M698.58,220.41S744.4,30.41,900.71,7.5"/>
      <path class="cls-3" d="M586.74,220.41S559.78,20.98,418.29,7.5"/>
      <ellipse class="cls-9" cx="418.29" cy="898.56" rx="534.44" ry="85.57" transform="translate(-554.33 1089.31) rotate(-76.13)"/>
      <ellipse class="cls-9" cx="875.74" cy="898.56" rx="85.57" ry="534.44" transform="translate(-189.83 236.07) rotate(-13.87)"/>
      <path class="cls-1" d="M881.02,947.26c0,168.94-114.28,442.44-245.49,442.44s-229.65-273.5-229.65-442.44c0-86.41,27.82-164.44,72.57-220.07,44.33,34.96,101.98,56.09,165,56.09s120.67-21.13,165-56.09c44.75,55.63,72.57,133.66,72.57,220.07Z"/>
      <path class="cls-2" d="M881.3,550.57c0,70.65-32.17,133.95-82.98,176.62-41.61,34.96-95.72,56.09-154.86,56.09s-113.26-21.13-154.86-56.09c-50.8-42.67-82.98-105.97-82.98-176.62,0-75.36,36.61-142.36,93.39-184.89,40.05-29.99,90.12-47.82,144.46-47.82s104.41,17.83,144.46,47.82c56.77,42.53,93.39,109.53,93.39,184.89Z"/>
      <path class="cls-4" d="M807.77,317.86c0,16.83-3.68,32.94-10.41,47.82-42.67-29.99-96.02-47.82-153.91-47.82s-111.24,17.83-153.91,47.82c-6.73-14.88-10.41-30.99-10.41-47.82,0-23.68,7.28-45.94,20.09-65.34,11.88,18.13,33.52,30.26,58.25,30.26,37.52,0,67.94-27.92,67.94-62.37,0-13.59-4.73-26.16-12.77-36.4,9.98-1.57,20.28-2.39,30.81-2.39s21.42.87,31.66,2.53c-7.97,10.22-12.66,22.74-12.66,36.26,0,34.45,30.41,62.37,67.93,62.37,24.4,0,45.79-11.81,57.77-29.54,12.51,19.23,19.62,41.24,19.62,64.62Z"/>
      <path class="cls-6" d="M442.47,784.1s163.86,158.08,403.36,0"/>
      <path class="cls-6" d="M408.88,898.56s222.76,100.05,469.14,0"/>
      <path class="cls-6" d="M408.88,1008.73s207.42,110.5,466.86,0"/>
      <path class="cls-6" d="M434.93,1132.51s183.87,127.82,413.09,0"/>
      <path class="cls-6" d="M488.51,1265.91s156.29,114.34,300.42,0"/>
      <polyline class="cls-8" points="834.92 412.48 953.34 284.47 1211.44 452.06"/>
      <polyline class="cls-8" points="881.3 550.57 1081.18 550.57 1262.1 711.85"/>
      <polyline class="cls-8" points="798.32 727.19 1023.18 769.97 1177.67 1116.67"/>
      <polyline class="cls-8" points="489.54 365.68 297.22 284.47 36.71 431.05"/>
      <polyline class="cls-8" points="408.88 525.14 212.8 504.41 15 671.14"/>
      <polyline class="cls-8" points="478.45 727.19 198.33 754.75 51.18 1070.84"/>
      <path class="cls-5" d="M625.41,220.41c0,34.45-30.42,62.37-67.94,62.37-24.73,0-46.37-12.13-58.25-30.26,23.19-35.1,64.46-60.81,113.42-68.51,8.04,10.24,12.77,22.81,12.77,36.4Z"/>
      <path class="cls-5" d="M788.15,253.24c-11.98,17.73-33.37,29.54-57.77,29.54-37.52,0-67.93-27.92-67.93-62.37,0-13.52,4.69-26.04,12.66-36.26,48.92,7.91,90.08,33.83,113.04,69.09Z"/>
      <ellipse class="cls-7" cx="645.5" cy="287.87" rx="21.09" ry="16.22"/>
    </g>
  </g>
</svg>