<?xml version="1.0" encoding="UTF-8"?>
<svg id="_Слой_2" data-name="Слой 2" xmlns="http://www.w3.org/2000/svg" viewBox="0 0 1649.86 1414.66">
  <defs>
    <style>
      .cls-1 {
        fill: #1d1d1b;
      }

      .cls-1, .cls-2, .cls-3, .cls-4, .cls-5, .cls-6, .cls-7, .cls-8 {
        stroke: #1d1d1b;
        stroke-linecap: round;
        stroke-miterlimit: 10;
      }

      .cls-1, .cls-2, .cls-5, .cls-6, .cls-7, .cls-8 {
        stroke-width: 27px;
      }

      .cls-2 {
        fill: none;
      }

      .cls-3 {
        stroke-width: 18px;
      }

      .cls-3, .cls-5 {
        fill: #ca9e67;
      }

      .cls-4 {
        stroke-width: 17px;
      }

      .cls-4, .cls-8 {
        fill: #fff;
      }

      .cls-6 {
        fill: #be1622;
      }

      .cls-7 {
        fill: #b17f4a;
      }
    </style>
  </defs>
  <g id="_Слой_1-2" data-name="Слой 1">
    <g>
      <path class="cls-6" d="M1101.56,1099.94c-280.66,413.1-572.02,0-572.02,0,192.66-40.34,572.02,0,572.02,0Z"/>
      <path class="cls-7" d="M508.38,336.2S161.37,263.2,21.41,38.04c0,0-79.58,512.24,266,560.39l220.97-262.23Z"/>
      <path class="cls-7" d="M1141.48,336.2s347.01-73,486.97-298.16c0,0,79.58,512.24-266,560.39l-220.97-262.23Z"/>
      <path class="cls-4" d="M1058.17,1111.85l-41.61,50.32-14.95-54.81-33.92,31.3-22.42-34.97-45.24,34.97-9.96-37.76-47.67,35.25-32.53-37.73-40.14,31.66-23.81-32.09-35.08,43.17-20.05-43.17-47.61,50.68-10.02-46.35-65.04,59.84,23.99-56.01s225.49-80.13,466.06,5.69Z"/>
      <path class="cls-5" d="M820.26,244.95c-319.28,0-578.11,258.82-578.11,578.1s258.83,578.11,578.11,578.11,578.11-258.83,578.11-578.11S1139.54,244.95,820.26,244.95ZM529.54,1099.94c192.66-40.34,572.02,0,572.02,0-280.66,413.1-572.02,0-572.02,0Z"/>
      <circle class="cls-8" cx="511.96" cy="697.6" r="145.35"/>
      <circle class="cls-8" cx="1128.55" cy="697.6" r="145.35"/>
      <path class="cls-1" d="M929.66,828.81c0,60.42-112.03,109.4-109.4,109.4s-109.4-48.98-109.4-109.4,48.98-109.4,109.4-109.4,109.4,48.98,109.4,109.4Z"/>
      <polygon class="cls-4" points="678.83 1237.84 664.48 1171.53 635.25 1207.87 678.83 1237.84"/>
      <polygon class="cls-4" points="1003.69 1212.47 967.7 1161.51 955.45 1247.18 1003.69 1212.47"/>
      <path class="cls-2" d="M568.12,370.61s192.93,68.57,228.32,294.19"/>
      <path class="cls-2" d="M1058.17,370.61s-177.68,61.94-175.46,294.19"/>
      <circle class="cls-1" cx="486.77" cy="700.19" r="90.69"/>
      <circle class="cls-1" cx="1148.86" cy="700.19" r="90.69"/>
      <path class="cls-3" d="M486.77,960.01s67.44-234.64,273.91-262.41"/>
      <path class="cls-3" d="M1128.55,978.78s-41.67-245.04-214.54-281.17"/>
    </g>
  </g>
</svg>