<?xml version="1.0" encoding="UTF-8"?>
<svg id="_Слой_2" data-name="Слой 2" xmlns="http://www.w3.org/2000/svg" viewBox="0 0 803.91 996.7">
  <defs>
    <style>
      .cls-1 {
        fill: #ca9e67;
      }

      .cls-1, .cls-2, .cls-3, .cls-4, .cls-5, .cls-6, .cls-7 {
        stroke: #1d1d1b;
        stroke-linecap: round;
      }

      .cls-1, .cls-2, .cls-4, .cls-5, .cls-6, .cls-7 {
        stroke-linejoin: round;
      }

      .cls-1, .cls-4, .cls-5, .cls-6, .cls-7 {
        stroke-width: 10px;
      }

      .cls-2 {
        stroke-width: 6px;
      }

      .cls-2, .cls-3 {
        fill: none;
      }

      .cls-3 {
        stroke-miterlimit: 10;
        stroke-width: 16px;
      }

      .cls-4 {
        fill: #ad8046;
      }

      .cls-5 {
        fill: #683c11;
      }

      .cls-6 {
        fill: #7d4e24;
      }

      .cls-7 {
        fill: #fff;
      }
    </style>
  </defs>
  <g id="_Слой_1-2" data-name="Слой 1">
    <g>
      <ellipse class="cls-1" cx="339.34" cy="635.52" rx="355.51" ry="53.14" transform="translate(-317.49 931.49) rotate(-86.16)"/>
      <ellipse class="cls-1" cx="461.83" cy="636.97" rx="53.14" ry="355.51" transform="translate(-41.66 32.39) rotate(-3.84)"/>
      <path class="cls-3" d="M442.25,202.53s54.86-134.79,209.09-194.53"/>
      <path class="cls-3" d="M362.86,202.53S306.8,67.74,152.57,8"/>
      <polygon class="cls-5" points="339.34 416.63 196.87 274.16 25.68 367.23 194.57 294.97 329 447.65 339.34 416.63"/>
      <polygon class="cls-5" points="345.09 547.61 189.98 459.14 5 606.21 187.68 489.01 339.34 587.82 345.09 547.61"/>
      <polygon class="cls-5" points="345.09 716.5 182.51 655.61 70.49 975.01 196.87 691.23 339.34 762.46 345.09 716.5"/>
      <polygon class="cls-5" points="464.57 416.63 607.04 274.16 778.23 367.23 609.34 294.97 474.91 447.65 464.57 416.63"/>
      <polygon class="cls-5" points="458.83 547.61 613.93 459.14 798.91 606.21 616.23 489.01 464.57 587.82 458.83 547.61"/>
      <polygon class="cls-5" points="458.83 716.5 621.4 655.61 733.42 975.01 607.04 691.23 464.57 762.46 458.83 716.5"/>
      <path class="cls-6" d="M497.9,582.07c0,42.78-1.98,83.83-5.62,121.9-1.56,16.39-3.43,32.24-5.58,47.43-16.13,113.9-48.03,191.44-84.74,191.44s-68.61-77.54-84.74-191.44c-2.15-15.19-4.02-31.04-5.58-47.43-3.64-38.07-5.62-79.12-5.62-121.9,0-5.33.03-10.63.09-15.9.16-13.6.52-27.01,1.07-40.18,1.37-33.23,3.96-64.95,7.58-94.52,1.45-11.89,3.07-23.42,4.85-34.57,2.72-17.09,5.81-33.27,9.23-48.37,14.81,30.78,42.01,51.4,73.12,51.4s58.31-20.62,73.12-51.4c3.42,15.1,6.51,31.28,9.23,48.37,1.78,11.15,3.4,22.68,4.85,34.57,3.62,29.57,6.21,61.29,7.58,94.52.55,13.17.91,26.58,1.07,40.18.06,5.27.09,10.57.09,15.9Z"/>
      <path class="cls-4" d="M486.98,294.97c0,19.57-4.34,37.88-11.9,53.56-14.81,30.78-42.01,51.4-73.12,51.4s-58.31-20.62-73.12-51.4c-7.56-15.68-11.9-33.99-11.9-53.56,0-57.97,38.06-104.96,85.02-104.96s85.02,46.99,85.02,104.96Z"/>
      <polyline class="cls-4" points="357.85 231.01 396.26 269.41 410.23 269.41 424.65 213.35"/>
      <polyline class="cls-4" points="345.09 341.36 353.73 333.71 362.86 345.78 377.05 331.65 384.63 340.48 403.17 327.83 410.23 341.72 426.42 325.18 427.6 345.78 446.43 335.48 450.26 325.18"/>
      <path class="cls-2" d="M337.13,425.61s62.96,58.73,121.69,0"/>
      <path class="cls-2" d="M337.13,468.42s62.96,58.73,121.69,0"/>
      <path class="cls-2" d="M337.13,519.62s62.96,58.73,121.69,0"/>
      <path class="cls-2" d="M337.13,554.2s62.96,58.73,121.69,0"/>
      <path class="cls-2" d="M337.13,593.24s62.96,58.73,121.69,0"/>
      <path class="cls-2" d="M337.13,645.69s62.96,58.73,121.69,0"/>
      <path class="cls-2" d="M337.13,682.79s62.96,58.73,121.69,0"/>
      <path class="cls-2" d="M337.13,729.14s62.96,58.73,121.69,0"/>
      <path class="cls-2" d="M337.13,775.49s62.96,58.73,121.69,0"/>
      <path class="cls-2" d="M349.84,829.73s49.81,28.23,96.28,0"/>
      <path class="cls-2" d="M362.64,872.8s36.57,17.52,70.68,0"/>
      <ellipse class="cls-7" cx="360.67" cy="287.9" rx="17.51" ry="25.51"/>
      <ellipse class="cls-7" cx="442.25" cy="280.34" rx="15.02" ry="30.91"/>
      <circle class="cls-7" cx="356.34" cy="294.23" r="2.33"/>
      <circle class="cls-7" cx="442.75" cy="272.6" r="3.19"/>
    </g>
  </g>
</svg>