<?xml version="1.0" encoding="UTF-8"?>
<svg id="_Слой_2" data-name="Слой 2" xmlns="http://www.w3.org/2000/svg" viewBox="0 0 637.11 594.65">
  <defs>
    <style>
      .cls-1 {
        fill: #627278;
      }

      .cls-1, .cls-2, .cls-3, .cls-4, .cls-5, .cls-6, .cls-7, .cls-8 {
        stroke: #1d1d1b;
        stroke-linecap: round;
        stroke-linejoin: round;
      }

      .cls-1, .cls-2, .cls-4, .cls-5, .cls-6, .cls-7, .cls-8 {
        stroke-width: 10px;
      }

      .cls-2 {
        fill: #1f2924;
      }

      .cls-3 {
        fill: none;
        stroke-width: 15px;
      }

      .cls-4 {
        fill: #37473f;
      }

      .cls-5 {
        fill: #195537;
      }

      .cls-6 {
        fill: #b33c18;
      }

      .cls-7 {
        fill: #123b26;
      }

      .cls-8 {
        fill: #fff;
      }
    </style>
  </defs>
  <g id="_Слой_1-2" data-name="Слой 1">
    <g>
      <path class="cls-8" d="M389.46,98.69c-.52.09-1.03.17-1.55.25-2.19.32-4.43.48-6.7.48-5.96,0-11.66-1.13-16.9-3.18,1.5-.53,3.03-.93,4.6-1.19,5.48-.94,11.11-.23,16.83,1.99h0c1.24.48,2.48,1.03,3.72,1.65Z"/>
      <path class="cls-1" d="M474.56,247.45l-86.44,14.52c.43-3.37.68-6.81.73-10.32,20.56-18.85,33.44-45.89,33.44-75.93,0-8.53-1.04-16.83-3-24.76-3.21-13.01-8.9-25.04-16.53-35.57,1.07-1.59,2.09-3.19,3.06-4.78,8.86,8.45,17.69,20.03,26.22,34.25,15.78,26.29,30.52,61.57,42.52,102.6Z"/>
      <path class="cls-1" d="M453.29,589.25c-23.12,3.95-48.94-21.38-71.77-65.3,27.83-34.97,46.01-89.03,46.01-135.65,0-6.31-.34-12.52-.98-18.6-3.94-37.22-19.53-69.73-41.97-91.41,1.65-5.21,2.84-10.68,3.55-16.33l86.44-14.52c7.31,25.01,13.6,52.16,18.47,80.71,4.64,27.19,7.65,53.59,9.14,78.51,5.99,100.2-12.64,176.4-48.88,182.58Z"/>
      <path class="cls-5" d="M427.52,388.3c0,46.62-18.17,100.68-46.01,135.65-17.65,22.18-39.19,36.68-62.45,36.75h-.15c-23.25-.06-44.8-14.57-62.45-36.75-27.83-34.97-46.01-89.03-46.01-135.65,0-6.31.34-12.52.98-18.6,3.94-37.22,19.53-69.73,41.97-91.41,9.14,28.94,31.91,50.19,59.21,53.1,1.04.11,2.08.19,3.13.25h0c1.04.07,2.1.09,3.16.09h.15c1.06,0,2.12-.02,3.16-.09h0c1.05-.06,2.09-.14,3.13-.25,27.3-2.91,50.08-24.16,59.21-53.1,22.44,21.68,38.03,54.19,41.97,91.41.65,6.08.98,12.29.98,18.6Z"/>
      <path class="cls-5" d="M318.92,331.74c-1.06,0-2.12-.02-3.16-.09h0c1.05.06,2.1.09,3.16.09Z"/>
      <path class="cls-5" d="M322.23,331.64h0c-1.04.07-2.1.09-3.16.09,1.06,0,2.11-.03,3.16-.09Z"/>
      <path class="cls-8" d="M316.8,168.42c-.16,0-.31.01-.47.02h0c.16-.01.31-.01.47-.02Z"/>
      <path class="cls-5" d="M318.92,331.74c-1.06,0-2.12-.02-3.16-.09h0c1.05.06,2.1.09,3.16.09Z"/>
      <path class="cls-8" d="M387.91,98.94c-2.19.32-4.43.48-6.7.48-5.96,0-11.66-1.13-16.9-3.18-10.33-4.05-18.85-11.71-24.01-21.42,17.07,3.58,32.6,11.37,45.44,22.22h0c.74.63,1.46,1.26,2.17,1.9Z"/>
      <path class="cls-5" d="M419.29,150.96c-3.21-13.01-8.9-25.04-16.53-35.57-16.92,25.36-45.32,50.01-77.88,52.74-.03.17-.06.35-.09.53h0c-1.03-.1-2.07-.17-3.12-.22-.16,0-.31-.01-.47-.02-.7-.02-1.39-.04-2.09-.04h-.19c-.71,0-1.41.02-2.11.04-.16,0-.31.01-.47.02-1.04.04-2.09.12-3.12.22-.04-.18-.07-.35-.1-.53-32.57-2.73-60.96-27.38-77.88-52.74-7.63,10.53-13.32,22.57-16.53,35.57-1.96,7.93-3,16.22-3,24.76,0,30.04,12.88,57.09,33.44,75.93,5.96,5.46,12.57,10.24,19.7,14.2,14.29,7.94,30.67,12.6,48.09,12.95.32,0,.63,0,.96.01.34,0,.69,0,1.03,0h.15c.34,0,.69,0,1.03,0,.32,0,.64,0,.96-.01,17.43-.35,33.8-5.01,48.09-12.95,7.12-3.96,13.73-8.74,19.7-14.2,20.56-18.85,33.44-45.89,33.44-75.93,0-8.53-1.04-16.83-3-24.76Z"/>
      <path class="cls-8" d="M318.91,168.37c-.71,0-1.41.02-2.11.04-.16,0-.31.01-.47.02h0s-.01-.08-.02-.11h0c-.07-.42-.15-.83-.23-1.24l2.83,1.29Z"/>
      <path class="cls-8" d="M346.13,110.74c-9.13,12.27-16.13,31.06-20.74,54.69-.17.89-.35,1.79-.52,2.7-.03.17-.06.35-.09.53h0c-1.03-.1-2.07-.17-3.12-.22-.16,0-.31-.01-.47-.02-.7-.02-1.39-.04-2.09-.04h-.18v-95.76h.15v4.81l27.06,33.32Z"/>
      <path class="cls-8" d="M318.91,168.37c-.45,0-.89,0-1.34-.01-.07,0-.14,0-.21,0-.05,0-.11,0-.16,0-.3,0-.6-.01-.89-.02h0c-.07-.42-.15-.83-.23-1.24l2.83,1.29Z"/>
      <path class="cls-4" d="M418.4,80.72c-1.76,8.83-6.14,19.3-12.59,29.88-.97,1.6-1.99,3.19-3.06,4.78-16.92,25.36-45.32,50.01-77.88,52.74.17-.91.34-1.81.52-2.7,4.61-23.63,11.61-42.42,20.74-54.69l-27.06-33.32v-4.81h-.15v4.81l-27.05,33.31c9.12,12.26,16.12,31.06,20.73,54.7.17.89.35,1.79.52,2.7-32.57-2.73-60.96-27.38-77.88-52.74-1.07-1.59-2.09-3.19-3.06-4.78-6.45-10.58-10.83-21.06-12.59-29.88,6.88,9.25,17.14,15.84,28.94,17.97.52.09,1.03.17,1.55.25,2.19.32,4.43.48,6.7.48,5.96,0,11.66-1.13,16.9-3.18,10.33-4.05,18.85-11.71,24.01-21.42h0c3.45-6.48,5.4-13.87,5.4-21.71,0-17.91-10.17-33.45-25.05-41.16,12.48-4.35,26.31-6.93,40.87-6.94h.15c14.56.02,28.39,2.6,40.87,6.94-14.88,7.71-25.05,23.25-25.05,41.16,0,7.84,1.95,15.24,5.4,21.71h0c5.16,9.71,13.68,17.37,24.01,21.42,5.24,2.05,10.94,3.18,16.9,3.18,2.27,0,4.52-.16,6.7-.48.52-.07,1.03-.16,1.55-.25,11.81-2.12,22.06-8.72,28.94-17.97Z"/>
      <path class="cls-8" d="M346.13,110.74c-9.13,12.27-16.13,31.06-20.74,54.69-.17.89-.35,1.79-.52,2.7-1.06.09-2.12.16-3.19.19-.3.01-.6.02-.89.03-.22,0-.45.01-.67.01-.34,0-.68.01-1.01.01h-.18v-95.76h.15v4.81l27.06,33.32Z"/>
      <path class="cls-8" d="M419.28,72.62c0,2.48-.3,5.2-.88,8.1h0c-6.88,9.25-17.14,15.85-28.94,17.98-.52.09-1.03.17-1.55.25-2.19.32-4.43.48-6.7.48-5.96,0-11.66-1.13-16.9-3.18-10.33-4.05-18.85-11.71-24.01-21.42h0c-3.45-6.48-5.4-13.87-5.4-21.71,0-17.91,10.17-33.45,25.05-41.16h0c34.98,12.18,59.34,38.24,59.34,60.67Z"/>
      <path class="cls-6" d="M427.52,53.11c0,10.34-3.39,19.89-9.12,27.61h0c-6.88,9.25-17.14,15.85-28.94,17.98-.52.09-1.03.17-1.55.25-2.19.32-4.43.48-6.7.48-5.96,0-11.66-1.13-16.9-3.18-10.33-4.05-18.85-11.71-24.01-21.42h0c-3.45-6.48-5.4-13.87-5.4-21.71,0-17.91,10.17-33.45,25.05-41.16h0c6.37-3.3,13.6-5.16,21.26-5.16,25.58,0,46.32,20.73,46.32,46.32Z"/>
      <path class="cls-2" d="M346.13,110.74c-9.13,12.27-16.13,31.06-20.74,54.69l-6.32,2.88-.07.04-.07.03v-91.14l.15.19,27.06,33.32Z"/>
      <polyline class="cls-3" points="418.4 151.66 499.3 112.94 629.61 190.01"/>
      <polyline class="cls-3" points="474.56 247.45 509.1 241.65 590.55 351.41"/>
      <polyline class="cls-3" points="422.29 367.62 523.48 417.09 569.47 512.93"/>
      <path class="cls-8" d="M273.68,96.24c-5.24,2.05-10.94,3.18-16.9,3.18-2.27,0-4.52-.16-6.7-.48-.52-.07-1.03-.16-1.55-.25,1.24-.62,2.48-1.17,3.72-1.65h0c5.71-2.22,11.34-2.93,16.83-1.99,1.57.27,3.1.66,4.6,1.19Z"/>
      <path class="cls-1" d="M249.87,261.97l-86.44-14.52c12-41.03,26.75-76.31,42.52-102.6,8.53-14.22,17.36-25.8,26.22-34.25.97,1.6,1.99,3.19,3.06,4.78-7.63,10.53-13.32,22.57-16.53,35.57-1.96,7.93-3,16.22-3,24.76,0,30.04,12.88,57.09,33.44,75.93.05,3.5.3,6.94.73,10.32Z"/>
      <path class="cls-1" d="M256.47,523.95c-22.83,43.92-48.65,69.25-71.77,65.3-36.24-6.18-54.86-82.38-48.88-182.58,1.48-24.92,4.5-51.32,9.14-78.51,4.88-28.55,11.16-55.7,18.47-80.71l86.44,14.52c.7,5.65,1.9,11.12,3.55,16.33-22.44,21.68-38.03,54.19-41.97,91.41-.65,6.08-.98,12.29-.98,18.6,0,46.62,18.17,100.68,46.01,135.65Z"/>
      <path class="cls-7" d="M388.85,251.65c-.05,3.5-.3,6.94-.73,10.32-.7,5.65-1.9,11.12-3.55,16.33-9.14,28.94-31.91,50.19-59.21,53.1-1.04.11-2.08.19-3.13.25-1.05.06-2.1.09-3.16.09h-.15c-1.06,0-2.11-.03-3.16-.09-1.05-.06-2.09-.14-3.13-.25-27.3-2.91-50.08-24.16-59.21-53.1-1.65-5.21-2.84-10.68-3.55-16.33-.43-3.37-.68-6.81-.73-10.32,5.96,5.46,12.57,10.24,19.7,14.2,14.29,7.94,30.67,12.6,48.09,12.95.32,0,.63,0,.96.01.34,0,.69,0,1.03,0h.15c.34,0,.69,0,1.03,0,.32,0,.64,0,.96-.01,17.43-.35,33.8-5.01,48.09-12.95,7.12-3.96,13.73-8.74,19.7-14.2Z"/>
      <path class="cls-5" d="M318.92,331.74c-1.06,0-2.12-.02-3.16-.09h0c1.05.06,2.1.09,3.16.09Z"/>
      <path class="cls-5" d="M322.23,331.64h0c-1.04.07-2.1.09-3.16.09,1.06,0,2.11-.03,3.16-.09Z"/>
      <path class="cls-8" d="M321.65,168.43h0c-.16,0-.31,0-.47-.01.16,0,.31,0,.47.01Z"/>
      <path class="cls-5" d="M322.23,331.64h0c-1.04.07-2.1.09-3.16.09,1.06,0,2.11-.03,3.16-.09Z"/>
      <path class="cls-8" d="M297.7,74.82c-5.16,9.71-13.68,17.37-24.01,21.42-5.24,2.05-10.94,3.18-16.9,3.18-2.27,0-4.52-.16-6.7-.48.71-.64,1.43-1.27,2.17-1.89h0c12.83-10.86,28.36-18.64,45.44-22.22Z"/>
      <path class="cls-8" d="M319.07,72.62v95.76h-.16c-.71,0-1.41.02-2.11.04-.16,0-.31.01-.47.02-1.04.04-2.09.12-3.12.22-.04-.18-.07-.35-.1-.53-.17-.91-.34-1.8-.52-2.7-4.61-23.63-11.61-42.44-20.73-54.7l27.05-33.31v-4.81h.15Z"/>
      <path class="cls-8" d="M321.91,167.08c-.08.41-.16.82-.23,1.24h0s-.02.07-.02.11h0c-.16,0-.31,0-.47-.01-.7-.02-1.39-.04-2.09-.04h-.02l2.83-1.29Z"/>
      <path class="cls-8" d="M321.91,167.08c-.08.41-.16.82-.23,1.24h0c-.3.02-.6.02-.89.03-.22,0-.45.01-.67.01-.34,0-.68.01-1.01.01h-.02l2.83-1.29Z"/>
      <path class="cls-8" d="M303.1,53.11c0,7.84-1.95,15.24-5.4,21.71h0c-5.16,9.71-13.68,17.37-24.01,21.42-5.24,2.05-10.94,3.18-16.9,3.18-2.27,0-4.52-.16-6.7-.48-.52-.07-1.03-.16-1.55-.25-11.81-2.12-22.06-8.72-28.94-17.97h0c-.58-2.91-.88-5.62-.88-8.11,0-22.44,24.36-48.49,59.34-60.67h0c14.88,7.71,25.05,23.25,25.05,41.16Z"/>
      <path class="cls-8" d="M319.07,72.62v95.76h-.16c-.45,0-.89,0-1.34-.01-.07,0-.14,0-.21,0-.05,0-.11,0-.16,0-.3-.01-.59-.02-.89-.03-1.07-.04-2.13-.11-3.19-.19-.17-.91-.34-1.8-.52-2.7-4.61-23.63-11.61-42.44-20.73-54.7l27.05-33.31v-4.81h.15Z"/>
      <path class="cls-6" d="M303.1,53.11c0,7.84-1.95,15.24-5.4,21.71h0c-5.16,9.71-13.68,17.37-24.01,21.42-5.24,2.05-10.94,3.18-16.9,3.18-2.27,0-4.52-.16-6.7-.48-.52-.07-1.03-.16-1.55-.25-11.81-2.12-22.06-8.72-28.94-17.97h0c-5.73-7.72-9.12-17.27-9.12-27.62,0-25.58,20.73-46.32,46.32-46.32,7.66,0,14.89,1.86,21.26,5.16h0c14.88,7.71,25.05,23.25,25.05,41.16Z"/>
      <path class="cls-2" d="M319.07,77.24v91.14l-.07-.03-.07-.04-6.32-2.88c-4.61-23.63-11.61-42.44-20.73-54.7l27.05-33.31.15-.19Z"/>
      <polyline class="cls-3" points="7.5 197.1 137.81 120.03 218.71 158.75"/>
      <polyline class="cls-3" points="47.44 351.41 128.89 241.65 163.43 247.45"/>
      <polyline class="cls-3" points="215.7 367.62 114.51 417.09 68.52 512.93"/>
    </g>
  </g>
</svg>