<?xml version="1.0" encoding="UTF-8"?>
<svg id="_Слой_2" data-name="Слой 2" xmlns="http://www.w3.org/2000/svg" viewBox="0 0 866.21 1771.28">
  <defs>
    <style>
      .cls-1 {
        fill: #3c3c3b;
      }

      .cls-1, .cls-2, .cls-3, .cls-4, .cls-5 {
        stroke: #1d1d1b;
        stroke-linecap: round;
        stroke-miterlimit: 10;
        stroke-width: 27px;
      }

      .cls-2 {
        fill: none;
      }

      .cls-3 {
        fill: #706f6f;
      }

      .cls-4 {
        fill: #be1622;
      }

      .cls-5 {
        fill: #575756;
      }
    </style>
  </defs>
  <g id="_Слой_1-2" data-name="Слой 1">
    <g>
      <circle class="cls-1" cx="240.87" cy="184.62" r="171.12"/>
      <circle class="cls-1" cx="656.23" cy="184.62" r="171.12"/>
      <path class="cls-3" d="M787.85,1102.81c0,328.32-39.1,594.48-338.97,594.48S109.91,1431.14,109.91,1102.81,261.67,508.33,448.88,508.33s338.97,266.16,338.97,594.48Z"/>
      <ellipse class="cls-5" cx="158.33" cy="1380.74" rx="99.15" ry="367.57"/>
      <ellipse class="cls-5" cx="718.67" cy="1380.74" rx="99.15" ry="367.57"/>
      <ellipse class="cls-3" cx="158.33" cy="1697.29" rx="99.15" ry="60.49"/>
      <ellipse class="cls-3" cx="718.67" cy="1697.29" rx="99.15" ry="60.49"/>
      <ellipse class="cls-5" cx="158.33" cy="797.99" rx="154.5" ry="83.01" transform="translate(-644.83 668.41) rotate(-69.61)"/>
      <ellipse class="cls-5" cx="723.2" cy="797.99" rx="83.01" ry="154.5" transform="translate(-232.69 301.92) rotate(-20.39)"/>
      <path class="cls-3" d="M134.44,1026.52c-17.98,75.57-57.67,130.86-88.64,123.49-30.97-7.37-41.5-74.61-23.52-150.18,17.98-75.57,23.99-130.86,88.64-123.49,64.66,7.37,41.5,74.61,23.52,150.18Z"/>
      <path class="cls-3" d="M731.76,1026.52c17.98,75.57,57.67,130.86,88.64,123.49,30.97-7.37,41.5-74.61,23.52-150.18-17.98-75.57-3.26-143.81-88.64-123.49-85.39,20.32-41.5,74.61-23.52,150.18Z"/>
      <path class="cls-5" d="M723.49,475.74c0,174.84-228.05,291.12-274.61,291.12s-274.61-116.28-274.61-291.12,113.83-291.12,274.61-291.12,274.61,116.28,274.61,291.12Z"/>
      <circle class="cls-4" cx="375.09" cy="461.46" r="36.89"/>
      <circle class="cls-4" cx="522" cy="461.46" r="36.89"/>
      <polyline class="cls-2" points="396.42 625.74 448.88 666.55 448.88 751.87"/>
      <line class="cls-2" x1="508.25" y1="625.74" x2="448.88" y2="666.55"/>
    </g>
  </g>
</svg>